<svg version="1.1" xmlns="http://www.w3.org/2000/svg" style="display: block;" viewBox="0 0 2048 2048" width="1024" height="1024" preserveAspectRatio="none" xmlns:c2pa="http://c2pa.org/manifest"><metadata><c2pa:manifest>AAAMZ2p1bWIAAAAeanVtZGMycGEAEQAQgAAAqgA4m3EDYzJwYQAAAAxBanVtYgAAAEdqdW1kYzJtYQARABCAAACqADibcQN1cm46YzJwYTplMGQ0NTg2OS1kOWQyLTRhNGYtYTk4Zi0zOGVjNjExOTMyMWIAAAAB4mp1bWIAAAApanVtZGMyYXMAEQAQgAAAqgA4m3EDYzJwYS5hc3NlcnRpb25zAAAAAO1qdW1iAAAAQWp1bWRjYm9yABEAEIAAAKoAOJtxE2MycGEuYWN0aW9ucy52MgAAAAAYYzJzaJn8DlCeK00hzGyV6Sr5wzYAAACkY2JvcqFnYWN0aW9uc4GjZmFjdGlvbmxjMnBhLmNyZWF0ZWRxZGlnaXRhbFNvdXJjZVR5cGV4Rmh0dHA6Ly9jdi5pcHRjLm9yZy9uZXdzY29kZXMvZGlnaXRhbHNvdXJjZXR5cGUvdHJhaW5lZEFsZ29yaXRobWljTWVkaWFrZGVzY3JpcHRpb252Q3JlYXRlZCBieSBSZWNyYWZ0IEFJLgAAAMRqdW1iAAAAQGp1bWRjYm9yABEAEIAAAKoAOJtxE2MycGEuaGFzaC5kYXRhAAAAABhjMnNo+epUtxkV71w/J42Xc4R40wAAAHxjYm9ypWpleGNsdXNpb25zgaJlc3RhcnQY22ZsZW5ndGgZEIxkbmFtZW5qdW1iZiBtYW5pZmVzdGNhbGdmc2hhMjU2ZGhhc2hYIEHjIfTYCJgR1iAXpILDDrXHp8OCwB6tMPqfnWez6916Y3BhZEkAAAAAAAAAAAAAAAI0anVtYgAAACdqdW1kYzJjbAARABCAAACqADibcQNjMnBhLmNsYWltLnYyAAAAAgVjYm9ypmppbnN0YW5jZUlEeCx4bXA6aWlkOjFjYzI5ZjYyLTk0NmMtNDczOS1hN2RlLTU2OWQxZDg3NDU2Y3RjbGFpbV9nZW5lcmF0b3JfaW5mb6NkbmFtZWpyZWNyYWZ0LmFpZ3ZlcnNpb254KDgxY2U4MmUyYzVjM2NiZmJlOGM2ZmJlMTc5ZDVmOGQ5MWM0MDljZTF3b3JnLmNvbnRlbnRhdXRoLmMycGFfcnNmMC45MC43aXNpZ25hdHVyZXhNc2VsZiNqdW1iZj0vYzJwYS91cm46YzJwYTplMGQ0NTg2OS1kOWQyLTRhNGYtYTk4Zi0zOGVjNjExOTMyMWIvYzJwYS5zaWduYXR1cmVyY3JlYXRlZF9hc3NlcnRpb25zgqJjdXJseCpzZWxmI2p1bWJmPWMycGEuYXNzZXJ0aW9ucy9jMnBhLmFjdGlvbnMudjJkaGFzaFggMiVhlZgUg82+/s9aLpXa2OhSPa+Jg3oXGAOD0bz7RoKiY3VybHgpc2VsZiNqdW1iZj1jMnBhLmFzc2VydGlvbnMvYzJwYS5oYXNoLmRhdGFkaGFzaFgg8XWCuJpYwePo4b9NZ8ImfRvx45J4VRDhzvjISDH9XpVoZGM6dGl0bGV4GlJlY3JhZnQgQUkgR2VuZXJhdGVkIEltYWdlY2FsZ2ZzaGEyNTYAAAfcanVtYgAAAChqdW1kYzJjcwARABCAAACqADibcQNjMnBhLnNpZ25hdHVyZQAAAAesY2JvctKEWQOwogEmGCGCWQHnMIIB4zCCAYmgAwIBAgIJALfeWmNDUW56MAoGCCqGSM49BAMCMEAxHzAdBgNVBAMMFlJlY3JhZnQgU3RhZ2luZyBEZXYgQ0ExEDAOBgNVBAoMB1JlY3JhZnQxCzAJBgNVBAYTAlVTMB4XDTI2MDYxMjE5NDM1MFoXDTI3MDYxMjE5NDM1MFowNzELMAkGA1UEBhMCVVMxEzARBgNVBAoTClJlY3JhZnQgQUkxEzARBgNVBAMTCnJlY3JhZnQuYWkwWTATBgcqhkjOPQIBBggqhkjOPQMBBwNCAARKaTVbACsg/DeG3LeOxYdID/VA6EFG73E6Oknb+KIiCFJygRUz4ueN2z/t2qYb6CIUvS8RvgOiiClfoqsYtw81o3UwczAMBgNVHRMBAf8EAjAAMA4GA1UdDwEB/wQEAwIGwDATBgNVHSUEDDAKBggrBgEFBQcDBDAdBgNVHQ4EFgQULzHpBen96SL1y4IPHa8MkMshXf0wHwYDVR0jBBgwFoAUAgsqOBrKqpdK//m/kxZo7ZR4ebcwCgYIKoZIzj0EAwIDSAAwRQIgU8hKW0aXvvk8SQgVFNkax69Ym9ae8GsT2RZTQw+B51ACIQC0D4BkEoRD4N0r2ZRkNy0HZaW3WICy/QZGN95ilF4yzFkBvTCCAbkwggFfoAMCAQICCQCc+Wg7T6ATbzAKBggqhkjOPQQDAjBAMR8wHQYDVQQDDBZSZWNyYWZ0IFN0YWdpbmcgRGV2IENBMRAwDgYDVQQKDAdSZWNyYWZ0MQswCQYDVQQGEwJVUzAeFw0yNjA2MTIxOTQwMTZaFw0yODA2MTExOTQwMTZaMEAxHzAdBgNVBAMMFlJlY3JhZnQgU3RhZ2luZyBEZXYgQ0ExEDAOBgNVBAoMB1JlY3JhZnQxCzAJBgNVBAYTAlVTMFkwEwYHKoZIzj0CAQYIKoZIzj0DAQcDQgAEQ9IQBlcVbKaKPYrQSfOhL/00s7xUDC7RinIuLO/I1k99y9yh6oWF9kPxaP+tx1v1PeOL3yrVquJ730H0ZGiDyqNCMEAwDwYDVR0TAQH/BAUwAwEB/zAOBgNVHQ8BAf8EBAMCAYYwHQYDVR0OBBYEFAILKjgayqqXSv/5v5MWaO2UeHm3MAoGCCqGSM49BAMCA0gAMEUCIFQwNImLlYDeQhjgF+ZiqTbgcuzSqmOJw3Q2lQ/hu83FAiEA9O8cLm/xfoVLqB4jtdbuHzi3WL+p2RN+DRGkwpYswVuhY3BhZFkDpAAAAAAAAAAAAAAAAAAAAAAAAAAAAAAAAAAAAAAAAAAAAAAAAAAAAAAAAAAAAAAAAAAAAAAAAAAAAAAAAAAAAAAAAAAAAAAAAAAAAAAAAAAAAAAAAAAAAAAAAAAAAAAAAAAAAAAAAAAAAAAAAAAAAAAAAAAAAAAAAAAAAAAAAAAAAAAAAAAAAAAAAAAAAAAAAAAAAAAAAAAAAAAAAAAAAAAAAAAAAAAAAAAAAAAAAAAAAAAAAAAAAAAAAAAAAAAAAAAAAAAAAAAAAAAAAAAAAAAAAAAAAAAAAAAAAAAAAAAAAAAAAAAAAAAAAAAAAAAAAAAAAAAAAAAAAAAAAAAAAAAAAAAAAAAAAAAAAAAAAAAAAAAAAAAAAAAAAAAAAAAAAAAAAAAAAAAAAAAAAAAAAAAAAAAAAAAAAAAAAAAAAAAAAAAAAAAAAAAAAAAAAAAAAAAAAAAAAAAAAAAAAAAAAAAAAAAAAAAAAAAAAAAAAAAAAAAAAAAAAAAAAAAAAAAAAAAAAAAAAAAAAAAAAAAAAAAAAAAAAAAAAAAAAAAAAAAAAAAAAAAAAAAAAAAAAAAAAAAAAAAAAAAAAAAAAAAAAAAAAAAAAAAAAAAAAAAAAAAAAAAAAAAAAAAAAAAAAAAAAAAAAAAAAAAAAAAAAAAAAAAAAAAAAAAAAAAAAAAAAAAAAAAAAAAAAAAAAAAAAAAAAAAAAAAAAAAAAAAAAAAAAAAAAAAAAAAAAAAAAAAAAAAAAAAAAAAAAAAAAAAAAAAAAAAAAAAAAAAAAAAAAAAAAAAAAAAAAAAAAAAAAAAAAAAAAAAAAAAAAAAAAAAAAAAAAAAAAAAAAAAAAAAAAAAAAAAAAAAAAAAAAAAAAAAAAAAAAAAAAAAAAAAAAAAAAAAAAAAAAAAAAAAAAAAAAAAAAAAAAAAAAAAAAAAAAAAAAAAAAAAAAAAAAAAAAAAAAAAAAAAAAAAAAAAAAAAAAAAAAAAAAAAAAAAAAAAAAAAAAAAAAAAAAAAAAAAAAAAAAAAAAAAAAAAAAAAAAAAAAAAAAAAAAAAAAAAAAAAAAAAAAAAAAAAAAAAAAAAAAAAAAAAAAAAAAAAAAAAAAAAAAAAAAAAAAAAAAAAAAAAAAAAAAAAAAAAAAAAAAAAAAAAAAAAAAAAAAAAAAAAAAAAAAAAAAAAAAAAAAAAAAAAAAAAAAAAAAAAAAAAAAAAAAAAAAAAAAAAAAAAAAAAAAAAAAAAAAAAAAAAA9lhAFQu6FIVyPHtp2Jron+ioKf6GtL6OGZ4Ax7eMkmHaLvb/RALwq4E76YkupcIFk7iLR+/hrSEMhyDz3vLPltkTFA==</c2pa:manifest></metadata>
<defs>
	<linearGradient id="Gradient1" gradientUnits="userSpaceOnUse" x1="58.6187" y1="1211.12" x2="50.1714" y2="1207.79">
		<stop class="stop0" offset="0" stop-opacity="1" stop-color="rgb(8,44,99)"/>
		<stop class="stop1" offset="1" stop-opacity="1" stop-color="rgb(17,67,137)"/>
	</linearGradient>
	<linearGradient id="Gradient2" gradientUnits="userSpaceOnUse" x1="401.122" y1="1935" x2="300.43" y2="1701.15">
		<stop class="stop0" offset="0" stop-opacity="1" stop-color="rgb(167,171,176)"/>
		<stop class="stop1" offset="1" stop-opacity="1" stop-color="rgb(202,197,192)"/>
	</linearGradient>
	<linearGradient id="Gradient3" gradientUnits="userSpaceOnUse" x1="824.469" y1="1821.54" x2="818.167" y2="1738.11">
		<stop class="stop0" offset="0" stop-opacity="1" stop-color="rgb(0,0,0)"/>
		<stop class="stop1" offset="1" stop-opacity="1" stop-color="rgb(10,10,40)"/>
	</linearGradient>
	<linearGradient id="Gradient4" gradientUnits="userSpaceOnUse" x1="750.903" y1="1583.54" x2="1078.57" y2="1202.43">
		<stop class="stop0" offset="0" stop-opacity="1" stop-color="rgb(2,42,131)"/>
		<stop class="stop1" offset="1" stop-opacity="1" stop-color="rgb(6,110,224)"/>
	</linearGradient>
</defs>
<path transform="translate(0,0)" fill="rgb(255,255,255)" d="M 0 0 L 2048 0 L 2048 2048 L 0 2048 L 0 0 z"/>
<path transform="translate(0,0)" fill="rgb(13,71,161)" d="M 530.051 1380.88 C 538.278 1347.56 544.176 1331.97 559.444 1301.65 C 609.107 1203.05 697.257 1141.97 803.431 1117.59 C 807.186 1116.72 814 1118.91 818.04 1118.25 C 924.732 1104.16 1046.11 1140.39 1118.26 1222.79 C 1122.66 1227.83 1139.11 1246.41 1140.96 1250.36 C 1149.97 1269.58 1187.11 1324.27 1186.12 1342.77 C 1189.48 1350.59 1194.19 1363.81 1195.86 1372.21 C 1204.43 1385.76 1202.93 1401.18 1203.21 1416.53 C 1203.42 1428.58 1206.51 1443.74 1206.15 1455.09 C 1204.55 1504.58 1201.41 1554.82 1176.79 1599.07 C 1171.72 1608.83 1167.44 1619.81 1161.74 1629.2 C 1142.95 1660.15 1119.05 1687.34 1092.47 1711.65 C 1071.12 1731.17 1052.15 1744.63 1026.54 1757.76 C 1023.7 1759.21 1020.79 1766.78 1013.27 1770.88 L 1004.85 1774.89 C 997.127 1778.57 983.721 1785.38 976.023 1788.12 L 974.553 1789.22 C 976.832 1790.85 976.948 1791.27 979.633 1791.71 C 988.622 1793.34 1006.68 1795.97 1013.35 1801.16 C 1017.43 1812.17 965.149 1819.09 957.624 1819.23 C 946.996 1822.44 830.989 1828.77 818.239 1828.09 C 812.952 1828.73 807.645 1829.18 802.328 1829.46 C 799.368 1829.74 796.523 1830.03 793.55 1830.2 C 785.673 1830.17 776.836 1827.92 768.964 1827.01 C 745.45 1824.31 720.889 1824.65 698.517 1816.6 C 694.338 1815.09 687.178 1819.69 684.57 1812.57 C 685.63 1809.16 684.602 1810.31 687.438 1808.73 C 691.288 1809.67 693.249 1810.85 696.047 1807.75 L 695.484 1803.8 L 694.133 1803.79 L 693.868 1806.82 L 692.382 1807.96 C 688.812 1807.92 689.022 1807.92 685.671 1806.65 C 690.908 1800.17 698.229 1801.55 705.517 1802.13 L 707.121 1801.38 C 707.287 1801.3 709.24 1800.44 709.385 1800.3 C 715.899 1794.06 731.316 1800.55 737.824 1795.36 C 735.909 1790.71 722.008 1785.27 716.118 1782.17 C 711.544 1779.63 708.092 1776.76 703.082 1774.36 C 696.233 1770.2 689.658 1766.2 682.989 1761.76 C 648.335 1742.59 593.142 1686.1 576.422 1651.33 C 570.741 1645.03 567.34 1634.6 563.308 1627.25 C 534.917 1575.72 524.308 1519.54 523.753 1461.22 C 523.456 1429.89 523.496 1411.84 530.051 1380.88 z"/>
<path transform="translate(0,0)" fill="url(#Gradient4)" d="M 558.065 1321.41 C 562.774 1306.15 595.733 1255.41 607.23 1242.5 C 635.9 1210.33 675.181 1177.33 713.099 1156.41 C 720.578 1152.32 731.637 1148.38 739.608 1145.25 C 792.868 1123.98 850.746 1116.93 907.553 1124.81 L 908.182 1126.14 C 904.017 1131.08 895.118 1127.1 888.849 1127.77 C 865.037 1130.3 829.771 1121.19 807.666 1129.79 C 809.801 1131.66 809.248 1131.04 812.305 1131.92 C 813.106 1131.83 804.686 1133.18 807.646 1133.14 C 799.775 1133.25 789.961 1131.57 782.274 1133.76 L 783.869 1135.61 C 781.966 1138.69 779.875 1139.08 776.48 1140.49 C 778.482 1140.65 779.391 1140.53 781.319 1140.18 C 798.696 1137.03 817.101 1134.19 834.732 1133.45 C 864.882 1132.2 918.915 1138.09 947.841 1145.92 C 965.435 1150.69 982.355 1157.98 999.472 1164.18 C 1010.02 1168 1040.73 1179.29 1049.01 1184.8 C 1054.84 1188.67 1060.98 1195.18 1068.07 1196.2 C 1085.67 1198.71 1133.14 1250.98 1143.5 1265.08 C 1160.84 1288.67 1174.91 1315.8 1186.12 1342.77 C 1189.48 1350.59 1194.19 1363.81 1195.86 1372.21 C 1204.43 1385.76 1202.93 1401.18 1203.21 1416.53 C 1203.42 1428.58 1206.51 1443.74 1206.15 1455.09 C 1204.55 1504.58 1201.41 1554.82 1176.79 1599.07 C 1171.72 1608.83 1167.44 1619.81 1161.74 1629.2 C 1142.95 1660.15 1119.05 1687.34 1092.47 1711.65 C 1071.12 1731.17 1052.15 1744.63 1026.54 1757.76 C 1023.7 1759.21 1020.79 1766.78 1013.27 1770.88 C 1008.63 1761.16 999.497 1761.28 989.985 1760.1 C 980.654 1759.74 950.704 1762.48 947.498 1750.66 C 952.105 1738.08 1006.1 1726.23 1018.11 1710.44 C 1027.33 1698.31 1036.07 1676.24 1040.18 1661.95 C 1041.51 1657.31 1039.73 1636.1 1039.37 1630.62 L 1038.09 1631.22 C 1039.86 1634.08 1039.8 1633.76 1038.46 1636.42 C 1034.29 1633.51 1038.81 1629.02 1033.89 1623.4 C 1027.61 1616.23 1021.43 1593.37 1012.47 1589.45 L 1009.21 1591.26 C 1007.77 1589.43 1008.42 1589.86 1008.31 1586.6 L 1007.41 1588.39 C 1000.72 1582.02 993.375 1577.26 986.779 1570.37 C 976.42 1559.55 972.025 1545.87 964.427 1534.24 C 957.536 1523.69 941.298 1514.03 935.751 1501.14 C 930.403 1488.71 929.293 1476.05 924.79 1463.55 C 923.064 1459.36 917.951 1460.77 916.021 1459.23 C 903.543 1449.23 893.828 1433.43 882.095 1423.45 C 864.375 1408.65 840.855 1419.76 822.612 1411.13 C 800.557 1400.69 786.205 1378.49 763.58 1366.75 C 746.304 1357.79 734.943 1364.18 717.282 1358.69 C 711.214 1356.8 706.837 1353.8 701.401 1350.72 C 693.912 1348.63 683.314 1341.34 677.119 1339.44 C 665.02 1335.91 649.003 1336.62 637.126 1334.36 C 619.842 1331.07 615.269 1312.31 608.72 1299.42 C 604.638 1291.38 601.913 1286.65 610.509 1279.96 C 623.13 1269.44 627.726 1253.43 638.515 1240.61 C 648.574 1228.66 669.272 1214.42 678.028 1202.56 L 677.529 1201.17 C 674.5 1200.47 663.548 1202.44 661.908 1203.99 C 646.745 1218.59 630.193 1235.04 616.15 1250.44 C 607.086 1260.37 605.09 1279.02 591.075 1283.59 C 586.262 1285.16 588.149 1294.86 581.992 1297.35 C 579.437 1298.39 577.939 1301.99 573.683 1301.55 L 573.478 1296.58 C 572.22 1297.27 561.18 1317.83 559.609 1320.7 L 558.065 1321.41 z"/>
<path transform="translate(0,0)" fill="rgb(21,101,192)" d="M 1195.86 1372.21 C 1204.43 1385.76 1202.93 1401.18 1203.21 1416.53 C 1203.42 1428.58 1206.51 1443.74 1206.15 1455.09 C 1204.55 1504.58 1201.41 1554.82 1176.79 1599.07 C 1171.72 1608.83 1167.44 1619.81 1161.74 1629.2 C 1142.95 1660.15 1119.05 1687.34 1092.47 1711.65 C 1071.12 1731.17 1052.15 1744.63 1026.54 1757.76 C 1023.7 1759.21 1020.79 1766.78 1013.27 1770.88 C 1008.63 1761.16 999.497 1761.28 989.985 1760.1 C 993.231 1760.26 994.943 1760.7 997.737 1759.09 C 1000.5 1753.72 997.536 1753.35 998.198 1750.8 L 999.513 1750.09 C 1000.6 1754.2 999.754 1753.82 1002.41 1755.39 C 1004.98 1754.54 1005.5 1753.47 1007.35 1751.42 L 1007.2 1749.14 C 1004.98 1746.93 1003.49 1747.12 1000.32 1746.71 L 999.119 1746.57 C 1004.06 1744.72 1005.33 1744.15 1010.44 1743.37 C 1011.23 1744.35 1011.84 1745.35 1012.46 1746.44 C 1022.22 1742.32 1039.04 1731.4 1049.74 1727 C 1051.15 1726.42 1056.28 1718 1057.61 1716.03 C 1060.96 1711.05 1066.42 1712.25 1072.58 1710.57 C 1068.33 1708.93 1070.5 1709.15 1065.81 1710.19 L 1065.18 1709.34 L 1065.92 1707.83 C 1067.68 1707.25 1070.25 1706.4 1071.56 1705.16 C 1076.69 1700.27 1102.33 1674.94 1104.4 1670.89 L 1103.33 1668.53 L 1103.93 1667.21 L 1105.61 1667 C 1106.64 1669.19 1106.71 1669.52 1107.05 1671.84 L 1107.33 1673.81 C 1108.28 1672.85 1109.37 1671.61 1109.39 1670.43 C 1109.44 1668.24 1116.65 1664.32 1119.17 1662.69 C 1120.64 1659.16 1120.89 1660.54 1119.97 1657.96 C 1117.93 1659.79 1116.48 1661.61 1114.72 1663.69 L 1112.93 1663.77 C 1110.94 1658.74 1121.66 1657.73 1121.33 1650.47 C 1121.25 1648.73 1122.23 1646.25 1123.26 1644.64 C 1126.92 1642.89 1124.91 1643.36 1129.63 1644.22 C 1132.7 1640.87 1137.99 1635.45 1140.31 1631.85 L 1139.83 1630.15 C 1138.05 1631.14 1136.61 1632.45 1135.14 1632.09 C 1141.06 1620.16 1146.87 1621.35 1146 1605.75 C 1145.89 1603.8 1148.79 1602.99 1150.41 1602.35 L 1151.73 1603 C 1150.88 1605.28 1149.95 1606.14 1148.47 1608.13 C 1147.95 1611.46 1147.78 1610.25 1148.57 1613.34 C 1153.25 1604.49 1157.29 1595.09 1161.7 1586.23 C 1166.72 1576.14 1161.49 1581.33 1161.44 1574.59 L 1162.98 1573.04 C 1164.88 1573.92 1163.86 1573.52 1166.03 1574.22 C 1171.17 1566.72 1172.07 1555.35 1174.74 1547.55 C 1177.9 1538.31 1183.39 1530.51 1186.44 1520.4 L 1184.29 1520.26 C 1178.32 1515.26 1190.23 1495.1 1189.69 1491.85 L 1185.67 1491.2 C 1185.01 1487.59 1189.75 1461.64 1190.18 1454.86 C 1190.7 1446.86 1187.22 1424.28 1189.68 1417.76 C 1192.97 1409.9 1192.17 1402.85 1196.6 1395.11 C 1199.22 1390.53 1195.12 1379.06 1195.86 1372.21 z"/>
<path transform="translate(0,0)" fill="rgb(21,101,192)" d="M 1012.03 1240.18 C 1015.87 1240.94 1018.76 1245.81 1020.41 1245.37 C 1029.6 1242.91 1039.37 1249.07 1048.75 1250.99 C 1052.99 1251.85 1058.49 1254.92 1062.5 1256.76 L 1063.28 1254.54 C 1068.26 1264.3 1080.25 1278.87 1083.36 1289.58 L 1082.21 1289.11 L 1083.39 1288.68 L 1082.56 1289.33 L 1076.82 1283.3 C 1075.77 1287.07 1078.64 1296.02 1079.58 1299.94 C 1081.42 1307.64 1087.53 1307.95 1091.13 1315.68 C 1091.17 1319.72 1091.64 1317.85 1089.49 1321.44 C 1086.19 1322.58 1085.34 1321.38 1081.07 1319.91 C 1073.68 1323.48 1066.1 1332.25 1061 1338.49 C 1058.24 1336.51 1061.05 1332.58 1057.76 1328.25 L 1055.94 1329.93 C 1055.42 1332.4 1055.06 1333.2 1054.12 1335.57 C 1049.48 1339.63 1051.89 1344.07 1043.8 1344.51 C 1040.3 1344.7 1034.47 1343.32 1030.98 1342.7 L 1030.54 1343.52 C 1033.63 1347.1 1035.39 1349.64 1039.6 1351.96 L 1039.02 1352.34 C 1030.53 1349.33 1017.57 1329.06 1010.97 1322.68 C 1005.79 1317.68 1005.56 1323.31 1001.74 1323.59 C 999.959 1320.53 999.186 1310.65 999.085 1306.71 C 999.794 1299.03 990.779 1290.79 990.658 1283.85 C 990.564 1278.5 992.566 1266.45 997.317 1263.04 C 1001.33 1260.15 1002.14 1253.55 1007.19 1251.83 C 1007.7 1253.65 1007.97 1255.27 1008.11 1257.16 L 1010.25 1258.21 C 1013.52 1257.69 1013.32 1257.53 1015.92 1255.36 L 1015.71 1254.49 L 1011.93 1255.81 L 1010.49 1254.82 C 1009.76 1251.23 1011.59 1245.07 1012.03 1240.18 z"/>
<path transform="translate(0,0)" fill="rgb(255,255,255)" d="M 1034.62 1267.93 C 1030.9 1264.78 1024.41 1259.92 1022.16 1255.99 C 1022.55 1252.07 1021.65 1253.41 1023.96 1251.22 C 1035.45 1250.23 1042.34 1266.2 1055.32 1267.3 C 1057.93 1269.74 1071.48 1289.07 1072.71 1292.31 C 1076.79 1297.84 1081.36 1301.79 1078.64 1308.98 C 1076.37 1307.45 1073.5 1305.11 1071.26 1303.38 L 1066.03 1298.25 L 1064.94 1297.75 C 1061.17 1300.84 1061.45 1302.12 1060.43 1306.79 C 1057.6 1319.75 1042.56 1347.8 1027.6 1329.41 C 1008.58 1307.83 1007.74 1315.07 995.84 1284.84 C 1005.76 1274.26 1013.59 1263.63 1028.39 1271.58 C 1030.72 1270.46 1032.45 1269.3 1034.62 1267.93 z"/>
<path transform="translate(0,0)" fill="rgb(255,255,255)" d="M 1034.62 1267.93 C 1030.9 1264.78 1024.41 1259.92 1022.16 1255.99 C 1022.55 1252.07 1021.65 1253.41 1023.96 1251.22 C 1035.45 1250.23 1042.34 1266.2 1055.32 1267.3 C 1057.93 1269.74 1071.48 1289.07 1072.71 1292.31 C 1076.79 1297.84 1081.36 1301.79 1078.64 1308.98 C 1076.37 1307.45 1073.5 1305.11 1071.26 1303.38 L 1066.03 1298.25 L 1064.94 1297.75 L 1062.79 1295.3 C 1059.12 1296.42 1060.67 1296.68 1057.63 1295.77 C 1050.91 1291.36 1034.97 1277.27 1028.39 1271.58 C 1030.72 1270.46 1032.45 1269.3 1034.62 1267.93 z"/>
<path transform="translate(0,0)" fill="rgb(152,201,250)" d="M 1034.62 1267.93 C 1042.14 1275.92 1054.24 1288.56 1062.79 1295.3 C 1059.12 1296.42 1060.67 1296.68 1057.63 1295.77 C 1050.91 1291.36 1034.97 1277.27 1028.39 1271.58 C 1030.72 1270.46 1032.45 1269.3 1034.62 1267.93 z"/>
<path transform="translate(0,0)" fill="rgb(152,201,250)" d="M 1062.79 1295.3 L 1064.94 1297.75 C 1061.17 1300.84 1061.45 1302.12 1060.43 1306.79 C 1057.6 1319.75 1042.56 1347.8 1027.6 1329.41 C 1040.3 1326.69 1055.65 1308.18 1057.63 1295.77 C 1060.67 1296.68 1059.12 1296.42 1062.79 1295.3 z"/>
<path transform="translate(0,0)" fill="url(#Gradient3)" d="M 691.174 1763.24 C 686.97 1758.14 681.585 1754.62 676.278 1750.75 L 676.431 1750.28 C 691.668 1757.77 699.983 1757.23 715.736 1763.52 C 726.54 1769.77 737.731 1775.37 749.998 1778.04 L 751.875 1778.37 C 756.611 1779.23 769.856 1783.35 773.093 1783.56 C 785.292 1784.34 799.86 1785.77 811.996 1786.2 C 821.138 1786.53 831.069 1789.64 836.2 1789.83 C 871.783 1790.96 907.397 1790.61 942.951 1788.78 C 952.291 1788.32 971.803 1781.95 976.023 1788.12 L 974.553 1789.22 C 976.832 1790.85 976.948 1791.27 979.633 1791.71 C 988.622 1793.34 1006.68 1795.97 1013.35 1801.16 C 1017.43 1812.17 965.149 1819.09 957.624 1819.23 C 946.996 1822.44 830.989 1828.77 818.239 1828.09 C 809.531 1827.04 809.478 1827.32 800.946 1827.42 C 804.832 1825.66 809.109 1825.51 810.763 1823.11 C 797.472 1821.34 787.797 1819.9 774.047 1818.53 L 774.012 1818.08 C 783.239 1818.09 792.441 1818.18 801.66 1817.76 C 793.496 1816.93 778.859 1814.2 770.835 1812.09 C 757.896 1808.7 767.98 1807.18 764.445 1800.11 C 759.356 1796.12 749.294 1793.06 742.954 1791.33 C 724.149 1784.18 708.128 1773.79 691.174 1763.24 z"/>
<path transform="translate(0,0)" fill="rgb(1,9,52)" d="M 964.97 1805.8 C 961.161 1801.03 958.805 1799.85 960.734 1794.01 C 964.374 1790.66 969.573 1790.13 974.553 1789.22 C 976.832 1790.85 976.948 1791.27 979.633 1791.71 C 988.622 1793.34 1006.68 1795.97 1013.35 1801.16 C 1017.43 1812.17 965.149 1819.09 957.624 1819.23 C 946.996 1822.44 830.989 1828.77 818.239 1828.09 C 809.531 1827.04 809.478 1827.32 800.946 1827.42 C 804.832 1825.66 809.109 1825.51 810.763 1823.11 C 797.472 1821.34 787.797 1819.9 774.047 1818.53 L 774.012 1818.08 C 783.239 1818.09 792.441 1818.18 801.66 1817.76 C 814.831 1818.76 826.841 1818.11 840.041 1818.52 C 871.307 1819.47 903.224 1818.86 934.256 1814.69 C 942.391 1813.59 956.364 1808.39 964.97 1805.8 z"/>
<path transform="translate(0,0)" fill="rgb(11,23,81)" d="M 979.633 1791.71 C 988.622 1793.34 1006.68 1795.97 1013.35 1801.16 C 1017.43 1812.17 965.149 1819.09 957.624 1819.23 C 962.275 1813.22 996.576 1810.26 999.727 1802.19 C 992.855 1795.93 987.082 1799.7 979.633 1791.71 z"/>
<path transform="translate(0,0)" fill="rgb(11,23,81)" d="M 686.474 1760.38 C 680.787 1756.47 668.808 1749.04 666.08 1743.35 L 666.384 1742.35 C 674.302 1741.11 687.796 1746.44 696.73 1747.9 C 707.508 1750.02 718.62 1756.66 729.335 1758.54 C 740.882 1760.56 753.12 1761.28 764.755 1762.75 C 791.697 1766.15 818.245 1769.69 845.448 1770.01 C 854.179 1770.11 864.426 1772.72 873.297 1773.14 C 876.923 1773.48 885.14 1767.6 888.793 1766.84 C 891.991 1766.17 902.031 1771.81 904.75 1771.62 C 917.27 1770.72 947.642 1764.01 958.822 1768.99 L 959.953 1769.1 C 974.77 1770.4 989.602 1768.78 1004.23 1768.52 C 1004.44 1770.55 1004.74 1772.88 1004.85 1774.89 C 997.127 1778.57 983.721 1785.38 976.023 1788.12 C 971.803 1781.95 952.291 1788.32 942.951 1788.78 C 907.397 1790.61 871.783 1790.96 836.2 1789.83 C 831.069 1789.64 821.138 1786.53 811.996 1786.2 C 799.86 1785.77 785.292 1784.34 773.093 1783.56 C 769.856 1783.35 756.611 1779.23 751.875 1778.37 L 749.998 1778.04 C 737.731 1775.37 726.54 1769.77 715.736 1763.52 C 699.983 1757.23 691.668 1757.77 676.431 1750.28 L 676.278 1750.75 C 681.585 1754.62 686.97 1758.14 691.174 1763.24 L 686.474 1760.38 z"/>
<path transform="translate(0,0)" fill="rgb(1,9,52)" d="M 715.736 1763.52 C 745.994 1768.93 775.74 1772.26 806.004 1777.17 C 810.52 1777.9 824.651 1778.95 827.447 1779.85 L 827.696 1780.64 C 801.229 1782.92 775.461 1777.82 749.998 1778.04 C 737.731 1775.37 726.54 1769.77 715.736 1763.52 z"/>
<path transform="translate(0,0)" fill="rgb(15,28,71)" d="M 742.954 1791.33 C 749.294 1793.06 759.356 1796.12 764.445 1800.11 C 767.98 1807.18 757.896 1808.7 770.835 1812.09 C 778.859 1814.2 793.496 1816.93 801.66 1817.76 C 792.441 1818.18 783.239 1818.09 774.012 1818.08 L 774.047 1818.53 C 787.797 1819.9 797.472 1821.34 810.763 1823.11 C 809.109 1825.51 804.832 1825.66 800.946 1827.42 C 809.478 1827.32 809.531 1827.04 818.239 1828.09 C 812.952 1828.73 807.645 1829.18 802.328 1829.46 C 799.889 1828.64 797.58 1826.59 794.437 1825.9 C 772.75 1821.12 754.583 1822.87 732.399 1817.47 C 729.696 1814.9 729.091 1814.61 728.019 1810.96 C 731.951 1802.02 746.712 1806.53 749.143 1797.82 C 747.914 1794.49 746.822 1794.09 743.93 1792.02 L 742.954 1791.33 z"/>
<path transform="translate(0,0)" fill="rgb(60,167,248)" d="M 1017.73 1161.65 C 1015.29 1161.48 1009.28 1156.27 1006.17 1154.23 C 997.435 1155.73 966.298 1139.62 954.223 1137.69 C 946.713 1136.49 912.325 1130.96 908.491 1126.41 L 909.077 1125.19 C 916.881 1123.21 958.581 1132.82 967.904 1136.02 C 984.387 1141.7 1009.38 1149.14 1024.09 1158.09 C 1029.93 1159.73 1038.3 1164.57 1043.1 1168.3 C 1038.54 1170.97 1022.92 1162.53 1017.73 1161.65 z"/>
<path transform="translate(0,0)" fill="url(#Gradient2)" d="M 703.082 1774.36 C 708.092 1776.76 711.544 1779.63 716.118 1782.17 C 722.008 1785.27 735.909 1790.71 737.824 1795.36 C 731.316 1800.55 715.899 1794.06 709.385 1800.3 C 709.24 1800.44 707.287 1801.3 707.121 1801.38 L 705.517 1802.13 C 698.229 1801.55 690.908 1800.17 685.671 1806.65 C 689.022 1807.92 688.812 1807.92 692.382 1807.96 L 693.868 1806.82 L 694.133 1803.79 L 695.484 1803.8 L 696.047 1807.75 C 693.249 1810.85 691.288 1809.67 687.438 1808.73 C 684.602 1810.31 685.63 1809.16 684.57 1812.57 C 687.178 1819.69 694.338 1815.09 698.517 1816.6 C 720.889 1824.65 745.45 1824.31 768.964 1827.01 C 776.836 1827.92 785.673 1830.17 793.55 1830.2 C 778.89 1832.61 727.809 1834.83 712.426 1834.95 C 700.463 1836.66 688.02 1836.21 675.936 1836.94 C 607.345 1841.09 538.216 1843.26 469.505 1844.11 C 459.079 1843.33 447.225 1844.88 436.814 1843.93 C 396.463 1839.93 356.029 1843.05 315.657 1841.78 C 287.857 1840.9 260.069 1839.66 232.201 1839.85 C 215.451 1839.96 194.728 1836.74 178.461 1838.8 C 169.449 1839.32 156.224 1837.86 145.909 1838.02 C 131.296 1838.32 115.163 1836.34 100.087 1836.01 C 87.7492 1829.32 53.965 1826.43 39.2822 1823.38 C 38.7973 1822.82 38.3125 1822.25 37.8276 1821.69 C 37.5511 1816.85 37.0487 1819.02 39.1192 1814.87 C 38.7991 1815.11 88.2752 1802.34 93.396 1800.94 C 104.016 1800.38 119.623 1798.06 130.95 1797 C 164.506 1793.7 198.102 1790.83 231.73 1788.39 C 350.834 1780.62 470.154 1776.64 589.511 1776.45 C 610.973 1776.49 632.827 1776.88 654.293 1776.33 C 663.768 1776.1 696.434 1780.94 702.991 1776.33 L 703.082 1774.36 z"/>
<path transform="translate(0,0)" fill="rgb(106,131,156)" d="M 716.118 1782.17 C 722.008 1785.27 735.909 1790.71 737.824 1795.36 C 731.316 1800.55 715.899 1794.06 709.385 1800.3 C 709.24 1800.44 707.287 1801.3 707.121 1801.38 L 705.517 1802.13 C 698.229 1801.55 690.908 1800.17 685.671 1806.65 C 689.022 1807.92 688.812 1807.92 692.382 1807.96 L 693.868 1806.82 L 694.133 1803.79 L 695.484 1803.8 L 696.047 1807.75 C 693.249 1810.85 691.288 1809.67 687.438 1808.73 C 684.602 1810.31 685.63 1809.16 684.57 1812.57 C 687.178 1819.69 694.338 1815.09 698.517 1816.6 C 720.889 1824.65 745.45 1824.31 768.964 1827.01 C 776.836 1827.92 785.673 1830.17 793.55 1830.2 C 778.89 1832.61 727.809 1834.83 712.426 1834.95 C 709.154 1834.65 705.475 1834.62 702.163 1834.51 C 694.304 1831.53 685.313 1836.22 675.495 1831.55 L 674.682 1828.02 C 669.651 1824.94 667.934 1826.52 663.556 1828.95 C 656.118 1829.37 659.986 1822.36 644.065 1825.6 L 641.97 1826.96 C 640.228 1825.69 639.679 1825.17 637.52 1824.91 C 630.571 1822.26 627.049 1812.38 631.653 1807.9 C 635.512 1808.57 642.336 1810.88 644.726 1810.83 C 643.454 1809.99 639.607 1808.16 638.06 1807.37 C 638.813 1804.48 639.938 1803.94 642.112 1802.07 C 642.763 1799.32 642.788 1799.52 641.743 1796.89 C 641.385 1796.92 639.768 1797.04 639.308 1797.18 C 629.304 1800.37 633.479 1793.89 621.965 1800.58 L 621.039 1801.13 C 621.742 1798.81 621.837 1799.86 621.156 1797.98 L 617.805 1796.72 C 627.898 1795.4 647.856 1793.11 656.989 1790.1 C 669.289 1786.04 713.898 1792.2 716.118 1782.17 z"/>
<path transform="translate(0,0)" fill="rgb(108,144,169)" d="M 637.52 1824.91 C 630.571 1822.26 627.049 1812.38 631.653 1807.9 C 635.512 1808.57 642.336 1810.88 644.726 1810.83 L 645.108 1811.56 L 639.774 1812.15 C 649.176 1824.85 728.172 1831.13 745.678 1830.76 C 742.952 1831.95 739.135 1831.38 736.986 1831.87 C 723.285 1835.01 684.534 1825.22 674.682 1828.02 C 669.651 1824.94 667.934 1826.52 663.556 1828.95 C 656.118 1829.37 659.986 1822.36 644.065 1825.6 L 641.97 1826.96 C 640.228 1825.69 639.679 1825.17 637.52 1824.91 z"/>
<path transform="translate(0,0)" fill="rgb(106,131,156)" d="M 637.52 1824.91 C 630.571 1822.26 627.049 1812.38 631.653 1807.9 L 632.455 1812.94 C 636.276 1815.67 635.947 1812.46 636.734 1813.87 C 639.155 1818.22 637.321 1823.78 644.065 1825.6 L 641.97 1826.96 C 640.228 1825.69 639.679 1825.17 637.52 1824.91 z"/>
<path transform="translate(0,0)" fill="rgb(138,152,170)" d="M 637.52 1824.91 C 639.679 1825.17 640.228 1825.69 641.97 1826.96 L 644.065 1825.6 C 659.986 1822.36 656.118 1829.37 663.556 1828.95 C 667.934 1826.52 669.651 1824.94 674.682 1828.02 L 675.495 1831.55 C 685.313 1836.22 694.304 1831.53 702.163 1834.51 L 687.847 1834.64 C 676.716 1834.68 643.463 1834.75 635.588 1826.94 L 637.04 1826.01 L 637.52 1824.91 z"/>
<path transform="translate(0,0)" fill="rgb(13,71,161)" d="M 196.407 864.174 C 197.831 859.473 205.503 844.761 207.973 839.953 C 220.733 815.536 234.037 791.408 247.877 767.587 C 346.628 596.207 484.867 422.931 650.89 313.612 C 766.793 237.232 914.901 181.535 1054.99 208.952 C 1243.74 245.895 1396.48 394.643 1510.42 541.262 C 1531.17 567.968 1554.03 598.341 1572.94 626.579 C 1596.51 659.973 1618.97 695.809 1639.32 731.338 C 1641.87 735.787 1644.75 740.598 1647.01 745.154 C 1661.1 769.914 1685.41 811.663 1695.6 837.044 C 1687.02 830.068 1674.44 798.873 1659.58 787.545 L 1657.85 790.269 C 1641.75 759.59 1624.67 731.864 1608.42 701.923 C 1605.13 697.937 1586.06 666.624 1582.19 660.622 C 1579.31 657.511 1561.02 629.798 1556.62 623.541 C 1547.92 609.85 1538.23 597.524 1529.3 584.135 L 1528.3 583.094 C 1523.65 578.159 1518.19 569.735 1513.83 564 C 1387.56 397.983 1213.09 224.762 992.897 211.331 C 967.468 209.78 940.359 212.773 915.311 216.518 C 873.07 222.733 831.675 233.741 791.926 249.328 C 703.094 283.84 601.834 351.88 531.953 416.322 C 486.378 458.153 443.894 503.232 404.835 551.205 C 392.951 565.965 382.288 581.756 370.719 596.303 C 312.139 669.963 263.891 750.918 218.5 833.167 C 209.711 849.093 202.344 867.755 192.731 883.042 C 186.387 898.256 178.3 913.152 171.206 928.048 C 144.202 984.754 121.026 1043.08 97.2199 1101.16 L 92.4741 1113.63 C 90.6088 1115.27 91.4462 1114.9 89.0971 1115.42 L 86.3669 1112.39 C 89.4183 1103.15 93.3144 1094.11 97.0291 1085.11 C 118.606 1030.01 142.072 975.671 167.384 922.186 C 174.799 906.634 187.761 878.079 196.407 864.174 z"/>
<path transform="translate(0,0)" fill="rgb(11,23,81)" d="M 1609.97 698.396 C 1614.27 705.989 1619.59 705.634 1621.65 708.734 C 1627.16 717.061 1639.6 738.299 1642.86 746.797 C 1644.78 749.681 1648.75 755.548 1649.88 758.622 C 1652.4 765.473 1651.07 773.738 1654.91 779.977 L 1659.58 787.545 L 1657.85 790.269 C 1641.75 759.59 1624.67 731.864 1608.42 701.923 L 1609.97 698.396 z"/>
<path transform="translate(0,0)" fill="rgb(11,23,81)" d="M 1558.76 618.971 C 1567.08 620.956 1566.76 625.5 1571.23 630.186 L 1571.82 631.195 C 1576.26 638.651 1585.66 648.543 1586.47 655.954 L 1585.02 660.595 L 1582.19 660.622 C 1579.31 657.511 1561.02 629.798 1556.62 623.541 L 1558.76 618.971 z"/>
<path transform="translate(0,0)" fill="rgb(15,28,71)" d="M 1585.02 660.595 C 1587.68 659.85 1586.67 660.645 1588.34 658.531 C 1590.82 659.601 1592.42 662.773 1593.04 664.998 C 1597.45 681.087 1600.37 685.151 1609.97 698.396 L 1608.42 701.923 C 1605.13 697.937 1586.06 666.624 1582.19 660.622 L 1585.02 660.595 z"/>
<path transform="translate(0,0)" fill="rgb(13,71,161)" d="M 1529.3 584.135 C 1535.35 587.774 1537.27 592.677 1541.89 597.086 C 1542.12 597.307 1550.67 597.811 1551.54 603.516 C 1552.49 609.791 1551.04 616.391 1558.76 618.971 L 1556.62 623.541 C 1547.92 609.85 1538.23 597.524 1529.3 584.135 z"/>
<path transform="translate(0,0)" fill="rgb(13,71,161)" d="M 1659.58 787.545 C 1674.44 798.873 1687.02 830.068 1695.6 837.044 C 1698.49 840.817 1711.84 869.692 1715.1 876.534 C 1742.74 934.488 1768.36 993.387 1791.91 1053.12 C 1793.53 1057.15 1803.01 1079.69 1803.86 1082.94 L 1801.49 1088.58 C 1799.79 1083.08 1792.96 1081.93 1788.44 1073.8 L 1786.43 1073.42 C 1778.97 1058.57 1770.02 1031.8 1763.01 1015.27 C 1755.89 998.477 1744.84 975.587 1739.15 959.217 C 1734.97 951.231 1729.45 936.929 1725.6 928.157 C 1703.12 881.306 1683.74 836.007 1657.85 790.269 L 1659.58 787.545 z"/>
<path transform="translate(0,0)" fill="rgb(15,28,71)" d="M 1725.6 928.157 C 1733.92 929.184 1732.86 928.361 1738.48 935.322 C 1741.76 939.394 1742.75 940.903 1742.41 946.265 L 1741.83 947.244 C 1738.61 952.755 1738.67 952.89 1739.15 959.217 C 1734.97 951.231 1729.45 936.929 1725.6 928.157 z"/>
<path transform="translate(0,0)" fill="rgb(11,23,81)" d="M 1940.45 1611.44 C 1947.06 1618.1 1943.42 1613.23 1951.7 1613.79 C 1956.92 1617.65 1957.35 1626.89 1958 1633.3 C 1959.92 1631.23 1959.4 1631.83 1960.74 1629.27 C 1966.14 1654.55 1971.91 1681.52 1976.53 1706.89 C 1979.8 1726.34 1983.36 1750.42 1987.45 1769.57 L 1991.62 1795.18 C 1992.58 1799.05 1992.63 1798.84 1991.59 1802.65 C 1986.9 1807.53 1980.17 1806.83 1974.49 1803.77 C 1973.8 1794.52 1971.23 1782.64 1970 1772.93 C 1966.06 1741.95 1960.06 1711.18 1954.51 1680.42 C 1953.2 1672.98 1951.64 1665.58 1949.83 1658.25 C 1946.43 1644.07 1943.56 1626.27 1940.45 1611.44 z"/>
<path transform="translate(0,0)" fill="rgb(13,71,161)" d="M 1976.53 1706.89 C 1979.8 1726.34 1983.36 1750.42 1987.45 1769.57 L 1991.62 1795.18 C 1992.58 1799.05 1992.63 1798.84 1991.59 1802.65 C 1986.9 1807.53 1980.17 1806.83 1974.49 1803.77 C 1976.46 1798.61 1977.29 1798.99 1982.39 1797.32 C 1983.15 1795.83 1984.27 1794.43 1985.26 1793.05 L 1983.88 1790.85 C 1982.78 1788.56 1981.6 1787.47 1979.93 1785.6 C 1977.73 1784.7 1975.16 1784.06 1974.37 1781.38 C 1972.36 1774.5 1968.9 1768.26 1971.07 1761.34 C 1973.16 1759.06 1975.23 1759.14 1978.42 1758.53 L 1979.83 1758.27 C 1982.11 1754.26 1974.86 1727.27 1974.67 1720.77 C 1974.45 1713.56 1971.66 1713.6 1976.53 1706.89 z"/>
<path transform="translate(0,0)" fill="rgb(21,101,192)" d="M 1982.81 1777.87 C 1983.57 1781.66 1985.31 1787.48 1983.88 1790.85 C 1982.78 1788.56 1981.6 1787.47 1979.93 1785.6 C 1979.1 1780.98 1979.57 1780.65 1982.81 1777.87 z"/>
<path transform="translate(0,0)" fill="rgb(15,28,71)" d="M 1940.45 1611.44 C 1947.06 1618.1 1943.42 1613.23 1951.7 1613.79 C 1956.92 1617.65 1957.35 1626.89 1958 1633.3 C 1957.99 1638.54 1961.07 1649.12 1962.52 1654.39 C 1956.65 1658 1956.71 1658.05 1949.83 1658.25 C 1946.43 1644.07 1943.56 1626.27 1940.45 1611.44 z"/>
<path transform="translate(0,0)" fill="rgb(13,71,161)" d="M 1900.24 1433.76 L 1902.64 1432.72 C 1910.16 1436.17 1899.02 1445.08 1913.83 1445.81 C 1916.16 1448.6 1916.04 1448.5 1919.1 1450.45 C 1926.69 1480.83 1934.09 1511.27 1941.3 1541.75 C 1945.53 1559.54 1949.63 1577.36 1953.61 1595.21 C 1955.93 1606.09 1958.05 1618.76 1960.74 1629.27 C 1959.4 1631.83 1959.92 1631.23 1958 1633.3 C 1957.35 1626.89 1956.92 1617.65 1951.7 1613.79 C 1943.42 1613.23 1947.06 1618.1 1940.45 1611.44 C 1939.23 1597.44 1932.37 1571.08 1929.04 1556.5 C 1920.48 1513.81 1910.43 1475.86 1900.24 1433.76 z"/>
<path transform="translate(0,0)" fill="rgb(13,71,161)" d="M 1786.43 1073.42 L 1788.44 1073.8 C 1792.96 1081.93 1799.79 1083.08 1801.49 1088.58 L 1803.86 1082.94 L 1810.79 1101.37 L 1843.83 1195 C 1842.2 1203.6 1845.88 1218.16 1841.85 1222.78 L 1838.78 1223.82 C 1837.11 1219.84 1835.77 1214.58 1834.33 1210.36 C 1823.05 1177.31 1813.02 1143.74 1800.71 1111.06 C 1798.25 1104.17 1787.23 1077.75 1786.43 1073.42 z"/>
<path transform="translate(0,0)" fill="rgb(11,23,81)" d="M 1786.43 1073.42 L 1788.44 1073.8 C 1792.96 1081.93 1799.79 1083.08 1801.49 1088.58 L 1800.58 1089.62 C 1799.5 1090.84 1798.61 1091.77 1797.46 1092.92 L 1797.48 1094.02 C 1800.09 1100.3 1800.96 1102.05 1801.99 1108.83 L 1800.71 1111.06 C 1798.25 1104.17 1787.23 1077.75 1786.43 1073.42 z"/>
<path transform="translate(0,0)" fill="rgb(13,71,161)" d="M 1803.86 1082.94 L 1810.79 1101.37 L 1806.4 1101.85 C 1803.74 1100.77 1801.87 1096.63 1797.48 1094.02 L 1797.46 1092.92 C 1798.61 1091.77 1799.5 1090.84 1800.58 1089.62 L 1801.49 1088.58 L 1803.86 1082.94 z"/>
<path transform="translate(0,0)" fill="rgb(13,71,161)" d="M 1884.58 1321.7 C 1890.43 1342.38 1897.12 1364.62 1902.44 1385.32 C 1904.85 1393.48 1906.73 1401.11 1908.72 1409.38 C 1912.25 1423.05 1915.71 1436.74 1919.1 1450.45 C 1916.04 1448.5 1916.16 1448.6 1913.83 1445.81 C 1899.02 1445.08 1910.16 1436.17 1902.64 1432.72 L 1900.24 1433.76 C 1898.99 1427.62 1895.19 1415.46 1893.42 1409.05 C 1888.64 1391.96 1884.03 1374.83 1879.59 1357.65 C 1878.23 1350.72 1876.35 1343.94 1874.56 1337.11 C 1878.61 1328.85 1874.17 1333.1 1876.92 1326.96 C 1881.3 1325.92 1881.66 1325.14 1884.58 1321.7 z"/>
<path transform="translate(0,0)" fill="rgb(11,23,81)" d="M 1879.59 1357.65 C 1883.37 1358.81 1888.41 1360.98 1891.87 1361.45 C 1895.19 1367.84 1896.42 1375.33 1897.82 1382.43 C 1899.16 1390.33 1901.73 1395.45 1893.9 1400 C 1898.03 1408 1899.68 1428.71 1903.79 1430.82 L 1905.85 1430.16 C 1909.48 1433.46 1911.97 1441.01 1913.83 1445.81 C 1899.02 1445.08 1910.16 1436.17 1902.64 1432.72 L 1900.24 1433.76 C 1898.99 1427.62 1895.19 1415.46 1893.42 1409.05 C 1888.64 1391.96 1884.03 1374.83 1879.59 1357.65 z"/>
<path transform="translate(0,0)" fill="rgb(15,28,71)" d="M 1893.9 1400 C 1891.86 1396.23 1889.39 1375.21 1889.01 1370.66 C 1885.03 1367.73 1884.32 1367.6 1883.98 1362.94 C 1886.72 1361.08 1887.96 1361.68 1891.87 1361.45 C 1895.19 1367.84 1896.42 1375.33 1897.82 1382.43 C 1899.16 1390.33 1901.73 1395.45 1893.9 1400 z"/>
<path transform="translate(0,0)" fill="rgb(13,71,161)" d="M 1908.72 1409.38 C 1912.25 1423.05 1915.71 1436.74 1919.1 1450.45 C 1916.04 1448.5 1916.16 1448.6 1913.83 1445.81 C 1911.97 1441.01 1909.48 1433.46 1905.85 1430.16 C 1912.52 1421.09 1905.18 1422.28 1908.72 1409.38 z"/>
<path transform="translate(0,0)" fill="rgb(13,71,161)" d="M 1843.83 1195 C 1848.43 1207.11 1851.7 1219.59 1855.92 1231.87 C 1861.74 1249.07 1871.5 1276.91 1875.87 1293.91 L 1884.58 1321.7 C 1881.66 1325.14 1881.3 1325.92 1876.92 1326.96 C 1874.17 1333.1 1878.61 1328.85 1874.56 1337.11 C 1868.62 1320.25 1862.27 1297.82 1857.1 1280.6 L 1843.56 1238.24 L 1838.78 1223.82 L 1841.85 1222.78 C 1845.88 1218.16 1842.2 1203.6 1843.83 1195 z"/>
<path transform="translate(0,0)" fill="url(#Gradient1)" d="M 92.4741 1113.63 C 75.2579 1157.91 58.9437 1202.53 43.5415 1247.47 C 37.2629 1265.59 30.7234 1284.62 25.319 1303.13 C 24.6071 1305.57 22.9834 1306.57 20.7925 1307.44 L 18.3875 1306.2 C 18.2094 1305.46 18.0313 1304.72 17.8532 1303.99 C 27.2907 1280.27 43.6994 1226.76 51.4384 1205.53 C 63.9888 1171.1 74.6414 1143.38 86.3669 1112.39 L 89.0971 1115.42 C 91.4462 1114.9 90.6088 1115.27 92.4741 1113.63 z"/>
</svg>