<svg version="1.1" xmlns="http://www.w3.org/2000/svg" style="display: block;" viewBox="0 0 2048 2048" width="1024" height="1024" preserveAspectRatio="none" xmlns:c2pa="http://c2pa.org/manifest"><metadata><c2pa:manifest>AAAMZ2p1bWIAAAAeanVtZGMycGEAEQAQgAAAqgA4m3EDYzJwYQAAAAxBanVtYgAAAEdqdW1kYzJtYQARABCAAACqADibcQN1cm46YzJwYTo2MTMzNzQ0My04OTU2LTQ2NzAtODcyZi1mOWI4OGM4MjI4MzEAAAAB4mp1bWIAAAApanVtZGMyYXMAEQAQgAAAqgA4m3EDYzJwYS5hc3NlcnRpb25zAAAAAO1qdW1iAAAAQWp1bWRjYm9yABEAEIAAAKoAOJtxE2MycGEuYWN0aW9ucy52MgAAAAAYYzJzaDXS+QZBN6Nu8iHOa0zY7AcAAACkY2JvcqFnYWN0aW9uc4GjZmFjdGlvbmxjMnBhLmNyZWF0ZWRxZGlnaXRhbFNvdXJjZVR5cGV4Rmh0dHA6Ly9jdi5pcHRjLm9yZy9uZXdzY29kZXMvZGlnaXRhbHNvdXJjZXR5cGUvdHJhaW5lZEFsZ29yaXRobWljTWVkaWFrZGVzY3JpcHRpb252Q3JlYXRlZCBieSBSZWNyYWZ0IEFJLgAAAMRqdW1iAAAAQGp1bWRjYm9yABEAEIAAAKoAOJtxE2MycGEuaGFzaC5kYXRhAAAAABhjMnNoZi7CoKBX1g6Tbtpbrn3gOQAAAHxjYm9ypWpleGNsdXNpb25zgaJlc3RhcnQY22ZsZW5ndGgZEIxkbmFtZW5qdW1iZiBtYW5pZmVzdGNhbGdmc2hhMjU2ZGhhc2hYIE9QJXmdpBVZxeKQSPvw3hyQstFD/ucylGYqoE4BBvWwY3BhZEkAAAAAAAAAAAAAAAI0anVtYgAAACdqdW1kYzJjbAARABCAAACqADibcQNjMnBhLmNsYWltLnYyAAAAAgVjYm9ypmppbnN0YW5jZUlEeCx4bXA6aWlkOjZiMGQ5N2RiLTM0NDgtNDY5MS05ODRjLTZkMWE0ZTdjMTQ5M3RjbGFpbV9nZW5lcmF0b3JfaW5mb6NkbmFtZWpyZWNyYWZ0LmFpZ3ZlcnNpb254KDgxY2U4MmUyYzVjM2NiZmJlOGM2ZmJlMTc5ZDVmOGQ5MWM0MDljZTF3b3JnLmNvbnRlbnRhdXRoLmMycGFfcnNmMC45MC43aXNpZ25hdHVyZXhNc2VsZiNqdW1iZj0vYzJwYS91cm46YzJwYTo2MTMzNzQ0My04OTU2LTQ2NzAtODcyZi1mOWI4OGM4MjI4MzEvYzJwYS5zaWduYXR1cmVyY3JlYXRlZF9hc3NlcnRpb25zgqJjdXJseCpzZWxmI2p1bWJmPWMycGEuYXNzZXJ0aW9ucy9jMnBhLmFjdGlvbnMudjJkaGFzaFgg5tTL41yqBXTlD4XlPCJEyug6en/JvClwEGOoGFJCq+qiY3VybHgpc2VsZiNqdW1iZj1jMnBhLmFzc2VydGlvbnMvYzJwYS5oYXNoLmRhdGFkaGFzaFggdgMIFLlGyoDhLplpwTjsNw3o4Tk/esdb5hwEJdvpCTtoZGM6dGl0bGV4GlJlY3JhZnQgQUkgR2VuZXJhdGVkIEltYWdlY2FsZ2ZzaGEyNTYAAAfcanVtYgAAAChqdW1kYzJjcwARABCAAACqADibcQNjMnBhLnNpZ25hdHVyZQAAAAesY2JvctKEWQOwogEmGCGCWQHnMIIB4zCCAYmgAwIBAgIJALfeWmNDUW56MAoGCCqGSM49BAMCMEAxHzAdBgNVBAMMFlJlY3JhZnQgU3RhZ2luZyBEZXYgQ0ExEDAOBgNVBAoMB1JlY3JhZnQxCzAJBgNVBAYTAlVTMB4XDTI2MDYxMjE5NDM1MFoXDTI3MDYxMjE5NDM1MFowNzELMAkGA1UEBhMCVVMxEzARBgNVBAoTClJlY3JhZnQgQUkxEzARBgNVBAMTCnJlY3JhZnQuYWkwWTATBgcqhkjOPQIBBggqhkjOPQMBBwNCAARKaTVbACsg/DeG3LeOxYdID/VA6EFG73E6Oknb+KIiCFJygRUz4ueN2z/t2qYb6CIUvS8RvgOiiClfoqsYtw81o3UwczAMBgNVHRMBAf8EAjAAMA4GA1UdDwEB/wQEAwIGwDATBgNVHSUEDDAKBggrBgEFBQcDBDAdBgNVHQ4EFgQULzHpBen96SL1y4IPHa8MkMshXf0wHwYDVR0jBBgwFoAUAgsqOBrKqpdK//m/kxZo7ZR4ebcwCgYIKoZIzj0EAwIDSAAwRQIgU8hKW0aXvvk8SQgVFNkax69Ym9ae8GsT2RZTQw+B51ACIQC0D4BkEoRD4N0r2ZRkNy0HZaW3WICy/QZGN95ilF4yzFkBvTCCAbkwggFfoAMCAQICCQCc+Wg7T6ATbzAKBggqhkjOPQQDAjBAMR8wHQYDVQQDDBZSZWNyYWZ0IFN0YWdpbmcgRGV2IENBMRAwDgYDVQQKDAdSZWNyYWZ0MQswCQYDVQQGEwJVUzAeFw0yNjA2MTIxOTQwMTZaFw0yODA2MTExOTQwMTZaMEAxHzAdBgNVBAMMFlJlY3JhZnQgU3RhZ2luZyBEZXYgQ0ExEDAOBgNVBAoMB1JlY3JhZnQxCzAJBgNVBAYTAlVTMFkwEwYHKoZIzj0CAQYIKoZIzj0DAQcDQgAEQ9IQBlcVbKaKPYrQSfOhL/00s7xUDC7RinIuLO/I1k99y9yh6oWF9kPxaP+tx1v1PeOL3yrVquJ730H0ZGiDyqNCMEAwDwYDVR0TAQH/BAUwAwEB/zAOBgNVHQ8BAf8EBAMCAYYwHQYDVR0OBBYEFAILKjgayqqXSv/5v5MWaO2UeHm3MAoGCCqGSM49BAMCA0gAMEUCIFQwNImLlYDeQhjgF+ZiqTbgcuzSqmOJw3Q2lQ/hu83FAiEA9O8cLm/xfoVLqB4jtdbuHzi3WL+p2RN+DRGkwpYswVuhY3BhZFkDpAAAAAAAAAAAAAAAAAAAAAAAAAAAAAAAAAAAAAAAAAAAAAAAAAAAAAAAAAAAAAAAAAAAAAAAAAAAAAAAAAAAAAAAAAAAAAAAAAAAAAAAAAAAAAAAAAAAAAAAAAAAAAAAAAAAAAAAAAAAAAAAAAAAAAAAAAAAAAAAAAAAAAAAAAAAAAAAAAAAAAAAAAAAAAAAAAAAAAAAAAAAAAAAAAAAAAAAAAAAAAAAAAAAAAAAAAAAAAAAAAAAAAAAAAAAAAAAAAAAAAAAAAAAAAAAAAAAAAAAAAAAAAAAAAAAAAAAAAAAAAAAAAAAAAAAAAAAAAAAAAAAAAAAAAAAAAAAAAAAAAAAAAAAAAAAAAAAAAAAAAAAAAAAAAAAAAAAAAAAAAAAAAAAAAAAAAAAAAAAAAAAAAAAAAAAAAAAAAAAAAAAAAAAAAAAAAAAAAAAAAAAAAAAAAAAAAAAAAAAAAAAAAAAAAAAAAAAAAAAAAAAAAAAAAAAAAAAAAAAAAAAAAAAAAAAAAAAAAAAAAAAAAAAAAAAAAAAAAAAAAAAAAAAAAAAAAAAAAAAAAAAAAAAAAAAAAAAAAAAAAAAAAAAAAAAAAAAAAAAAAAAAAAAAAAAAAAAAAAAAAAAAAAAAAAAAAAAAAAAAAAAAAAAAAAAAAAAAAAAAAAAAAAAAAAAAAAAAAAAAAAAAAAAAAAAAAAAAAAAAAAAAAAAAAAAAAAAAAAAAAAAAAAAAAAAAAAAAAAAAAAAAAAAAAAAAAAAAAAAAAAAAAAAAAAAAAAAAAAAAAAAAAAAAAAAAAAAAAAAAAAAAAAAAAAAAAAAAAAAAAAAAAAAAAAAAAAAAAAAAAAAAAAAAAAAAAAAAAAAAAAAAAAAAAAAAAAAAAAAAAAAAAAAAAAAAAAAAAAAAAAAAAAAAAAAAAAAAAAAAAAAAAAAAAAAAAAAAAAAAAAAAAAAAAAAAAAAAAAAAAAAAAAAAAAAAAAAAAAAAAAAAAAAAAAAAAAAAAAAAAAAAAAAAAAAAAAAAAAAAAAAAAAAAAAAAAAAAAAAAAAAAAAAAAAAAAAAAAAAAAAAAAAAAAAAAAAAAAAAAAAAAAAAAAAAAAAAAAAAAAAAAAAAAAAAAAAAAAAAAAAAAAAAAAAAAAAAAAAAAAAAAAAAAAAAAAAAAAAAAAAAAAAAAAAAAAAAAAAAAAAAAAAAAAAAAAAAAAAAAAAAAAAAAAAAAAAAAAAAAAAAAAAAAAAAAAAAAAAAAAAA9lhAve+JpS0RK9NsIqE7vGn5PWHJD6fF+vakqeyqc0LBwUD/S8sWNX227KGdvwz+yTWIzorMtoXobY5+j9e+xc8PUA==</c2pa:manifest></metadata>
<defs>
	<linearGradient id="Gradient1" gradientUnits="userSpaceOnUse" x1="278.547" y1="1148.38" x2="86.3056" y2="1157.26">
		<stop class="stop0" offset="0" stop-opacity="1" stop-color="rgb(6,114,226)"/>
		<stop class="stop1" offset="1" stop-opacity="1" stop-color="rgb(19,137,241)"/>
	</linearGradient>
</defs>
<path transform="translate(0,0)" fill="rgb(255,255,255)" d="M 0 0 L 2048 0 L 2048 2048 L 0 2048 L 0 0 z"/>
<path transform="translate(0,0)" fill="rgb(21,101,192)" d="M 482.374 1466.6 C 301.043 1244.75 273.491 934.697 412.861 684.351 C 552.231 434.004 830.286 294.085 1114.38 331.343 C 1425.42 372.134 1671.18 615.18 1715.41 925.751 C 1759.64 1236.32 1591.52 1538.32 1304.24 1664.33 C 1016.95 1790.34 680.905 1709.49 482.374 1466.6 z"/>
<path transform="translate(0,0)" fill="rgb(66,165,245)" d="M 903.875 355.413 C 973.381 340.887 1030.41 342.253 1100.16 347.963 C 1103.29 349.061 1102.59 348.571 1105.17 348.747 C 1141.77 351.239 1246.3 376.548 1274.76 392.825 C 1284.28 396.183 1290.55 398.76 1299.7 403.025 C 1359.86 430.785 1401.79 456.238 1453.69 497.642 C 1458.56 500.834 1488.62 526.46 1491.53 530.22 C 1564.28 596.591 1611.49 665.255 1651.79 754.438 C 1657.57 766.9 1663.53 781.495 1667.45 794.643 C 1669.35 797.118 1668.97 796.029 1669.41 798.97 C 1679.45 825.143 1690.19 858.662 1695.15 886.268 C 1696.93 889.884 1702.17 927.474 1703.79 934.673 C 1706.25 953.007 1712.55 994.837 1710.13 1012.18 C 1713.65 1021.97 1702.29 1108.78 1702.8 1125.9 L 1702.04 1126.91 C 1698.11 1146.17 1695.62 1163.61 1690.5 1183.18 C 1664.16 1283.81 1616.61 1383.74 1549.43 1463.62 C 1529.29 1487.57 1489.44 1535.31 1462.39 1549.58 L 1461.55 1550.38 C 1450.31 1566.39 1350.06 1633.83 1332.69 1631.27 L 1331.06 1631.53 C 1311.58 1642.62 1286.31 1653.13 1265.19 1660.98 C 1257.67 1663.77 1244.34 1664.86 1238.35 1667.75 C 1230.93 1670.86 1222.7 1673.27 1214.99 1675.71 C 1210.97 1678.01 1199.38 1680.38 1194.31 1681.55 C 1177.17 1686.16 1147.3 1695.51 1130.69 1692.46 C 1128.27 1693.02 1128.36 1692.87 1126.55 1694.52 L 1130.46 1695.61 L 1130.56 1696.42 C 1123.21 1697.9 1115.57 1699.52 1108.28 1701.3 C 1086.14 1706.71 1063.66 1703.68 1041.15 1707.5 L 1040.14 1706.65 C 1041.99 1703.54 1040.79 1704.92 1044.39 1702.89 L 1040.28 1701.27 C 1029.62 1707.36 992.391 1705.54 979.901 1703.7 C 976.264 1703.57 974.07 1703.1 970.466 1702.43 C 953.802 1708.02 810.119 1681.1 799.444 1670.07 C 776.142 1660.69 754.494 1652.26 731.579 1641.36 C 658.248 1606.59 591.619 1559.16 534.751 1501.26 C 521.553 1487.98 507.121 1471.34 494.444 1457.27 C 491.409 1452.15 484.627 1444.52 480.732 1439.54 C 436.232 1382.57 399.49 1316.39 374.897 1248.42 C 365.499 1222.45 359.815 1198.94 353.765 1172.13 C 349.201 1163.44 339.967 1083.38 339.229 1069.16 C 335.14 1044.36 337.81 1017.84 338.11 992.87 C 337.213 986.267 344.035 917.179 346.508 910.774 C 347.59 901.029 353.491 876.724 356.043 866.983 C 374.227 797.577 400.941 724.754 441.308 665.056 C 442.834 659.455 483.629 602.564 489.271 596.34 C 511.934 571.339 548.252 526.268 575.18 507.849 C 604.243 482.82 623.358 468.123 656.551 448.396 C 657.309 447.324 669.271 440.153 671.803 438.654 C 729.728 404.349 792.178 380.607 857.38 364.307 C 872.31 360.574 888.976 357.01 903.875 355.413 z"/>
<path transform="translate(0,0)" fill="rgb(255,255,255)" d="M 353.765 1172.13 C 354.973 1172.8 413.508 1281.61 418.531 1292.41 C 428.387 1313.99 437.995 1335.68 447.353 1357.48 C 458.898 1384.1 472.707 1419.73 491.844 1441.36 C 511.663 1463.75 542.791 1477.59 563.7 1501.29 C 585.988 1526.56 602.429 1555.02 628.135 1576.89 C 661.894 1606.32 683.492 1603.92 722.177 1620.51 C 743.444 1629.63 766.139 1645.23 785.356 1658.16 C 788.219 1660.09 800.453 1667.66 801.41 1670.07 L 799.444 1670.07 C 776.142 1660.69 754.494 1652.26 731.579 1641.36 C 658.248 1606.59 591.619 1559.16 534.751 1501.26 C 521.553 1487.98 507.121 1471.34 494.444 1457.27 C 491.409 1452.15 484.627 1444.52 480.732 1439.54 C 436.232 1382.57 399.49 1316.39 374.897 1248.42 C 365.499 1222.45 359.815 1198.94 353.765 1172.13 z"/>
<path transform="translate(0,0)" fill="rgb(255,255,255)" d="M 903.875 355.413 C 973.381 340.887 1030.41 342.253 1100.16 347.963 C 1103.29 349.061 1102.59 348.571 1105.17 348.747 C 1141.77 351.239 1246.3 376.548 1274.76 392.825 C 1284.28 396.183 1290.55 398.76 1299.7 403.025 C 1359.86 430.785 1401.79 456.238 1453.69 497.642 C 1449.53 497.446 1431.35 482.487 1425.62 478.775 C 1400.77 462.682 1371.92 452.553 1346.71 438.204 C 1328.57 427.877 1311.63 414.516 1293.27 403.773 C 1287.17 400.908 1282.21 398.738 1275.92 396.298 C 1251.7 387.787 1203.5 388.667 1176.79 382.104 C 1164.05 378.976 1152.24 376.276 1139.56 371.791 C 1116.2 363.524 1104.49 356.655 1079.48 356.228 C 1049.63 355.718 1012.53 371.441 985.507 369.957 C 960.804 368.599 931.17 357.462 903.875 355.413 z"/>
<path transform="translate(0,0)" fill="rgb(255,255,255)" d="M 441.308 665.056 C 440.371 671.931 437.399 678.888 435.437 685.586 C 425.403 719.767 416.746 754.804 404.222 788.177 C 392.863 818.446 378.119 847.686 364.857 877.192 C 361.859 883.862 350.906 907.455 347.289 911.221 L 346.508 910.774 C 347.59 901.029 353.491 876.724 356.043 866.983 C 374.227 797.577 400.941 724.754 441.308 665.056 z"/>
<path transform="translate(0,0)" fill="rgb(255,255,255)" d="M 1702.04 1126.91 C 1698.11 1146.17 1695.62 1163.61 1690.5 1183.18 C 1664.16 1283.81 1616.61 1383.74 1549.43 1463.62 C 1529.29 1487.57 1489.44 1535.31 1462.39 1549.58 C 1464.24 1536.63 1538.33 1475.77 1551.55 1455.9 C 1565.18 1435.41 1577.43 1418.12 1589.4 1395.17 C 1598.88 1377.02 1609.77 1351.82 1619.82 1335.01 C 1634.36 1312.37 1650.66 1295.27 1659.15 1268.99 C 1672 1229.17 1671.49 1187.51 1690.61 1149.33 C 1694.44 1141.69 1696.06 1133.66 1702.04 1126.91 z"/>
<path transform="translate(0,0)" fill="rgb(255,255,255)" d="M 1491.53 530.22 C 1564.28 596.591 1611.49 665.255 1651.79 754.438 C 1657.57 766.9 1663.53 781.495 1667.45 794.643 C 1664.01 791.71 1651.57 762.921 1647.49 755.11 C 1640.55 744.374 1631.44 728.702 1624.3 718.928 C 1609.47 697.724 1589.26 674.607 1576.76 652.02 C 1558.45 618.938 1545.43 587.741 1518.91 559.694 C 1513.23 553.682 1493.95 535.544 1491.53 530.22 z"/>
<path transform="translate(0,0)" fill="rgb(255,255,255)" d="M 1229.18 1666.64 C 1246.74 1658.4 1313.38 1628.41 1331.06 1631.53 C 1311.58 1642.62 1286.31 1653.13 1265.19 1660.98 C 1257.67 1663.77 1244.34 1664.86 1238.35 1667.75 C 1234.54 1667.31 1233.26 1668.33 1229.18 1666.64 z"/>
<path transform="translate(0,0)" fill="rgb(255,255,255)" d="M 656.551 448.396 C 654.548 452.215 651.099 453.601 648.919 456.847 C 640.753 469.003 587.224 507.564 575.18 507.849 C 604.243 482.82 623.358 468.123 656.551 448.396 z"/>
<path transform="translate(0,0)" fill="rgb(255,255,255)" d="M 1107.54 1686.71 C 1127.45 1684.76 1176.05 1679.23 1194.31 1681.55 C 1177.17 1686.16 1147.3 1695.51 1130.69 1692.46 C 1130.66 1692.45 1109.23 1687.16 1107.54 1686.71 z"/>
<path transform="translate(0,0)" fill="rgb(255,255,255)" d="M 1710.13 1012.18 C 1705.81 1007.54 1700.62 983.246 1699.39 976.907 C 1697.39 966.659 1698.71 943.307 1703.79 934.673 C 1706.25 953.007 1712.55 994.837 1710.13 1012.18 z"/>
<path transform="translate(0,0)" fill="rgb(4,44,120)" d="M 799.444 1670.07 L 801.41 1670.07 C 813.2 1671.67 826.815 1676.91 838.83 1679.83 C 854.319 1683.6 869.555 1687.05 885.5 1688.92 C 892.994 1689.8 897.059 1696.8 905.533 1692.08 C 910.274 1693.24 912.189 1694.68 917.265 1695.78 C 931.724 1698.91 957.03 1699.32 970.466 1702.43 C 953.802 1708.02 810.119 1681.1 799.444 1670.07 z"/>
<path transform="translate(0,0)" fill="rgb(255,255,255)" d="M 1669.41 798.97 C 1679.45 825.143 1690.19 858.662 1695.15 886.268 C 1680.42 860.159 1670.3 828.948 1669.41 798.97 z"/>
<path transform="translate(0,0)" fill="rgb(4,44,120)" d="M 1332.69 1631.27 C 1371.02 1613.99 1404.91 1591.51 1438.72 1566.72 C 1446.09 1561.33 1453.82 1555.04 1461.55 1550.38 C 1450.31 1566.39 1350.06 1633.83 1332.69 1631.27 z"/>
<path transform="translate(0,0)" fill="rgb(255,255,255)" d="M 979.901 1703.7 C 992.045 1696.71 1039.1 1695.89 1054.88 1698.5 C 1049.26 1699.87 1045.98 1700.46 1040.28 1701.27 C 1029.62 1707.36 992.391 1705.54 979.901 1703.7 z"/>
<path transform="translate(0,0)" fill="rgb(4,44,120)" d="M 1126.55 1694.52 L 1130.46 1695.61 L 1130.56 1696.42 C 1123.21 1697.9 1115.57 1699.52 1108.28 1701.3 C 1086.14 1706.71 1063.66 1703.68 1041.15 1707.5 L 1040.14 1706.65 C 1041.99 1703.54 1040.79 1704.92 1044.39 1702.89 C 1050.79 1704.88 1116.86 1697.18 1126.55 1694.52 z"/>
<path transform="translate(0,0)" fill="rgb(255,255,255)" d="M 338.11 992.87 C 341.606 1004.22 344.521 1058.96 339.229 1069.16 C 335.14 1044.36 337.81 1017.84 338.11 992.87 z"/>
<path transform="translate(0,0)" fill="rgb(165,186,214)" d="M 1214.99 1675.71 L 1214.47 1674.4 C 1216.41 1670.6 1224.81 1668.23 1229.18 1666.64 C 1233.26 1668.33 1234.54 1667.31 1238.35 1667.75 C 1230.93 1670.86 1222.7 1673.27 1214.99 1675.71 z"/>
<path transform="translate(0,0)" fill="rgb(255,255,255)" d="M 993.759 627.158 C 1016.59 625.807 1032.11 633.244 1041.08 655.233 C 1065.58 661.02 1089.94 667.425 1114.39 673.376 C 1134.07 678.165 1153.15 681.888 1172.49 687.92 C 1184.8 665.745 1207.7 656.126 1230.93 668.616 C 1240.42 673.636 1247.43 682.324 1250.34 692.654 C 1253.98 705.527 1251.3 714.874 1245.26 725.979 L 1344.43 792.084 C 1354.38 786.633 1369.07 782.28 1380.12 786.003 C 1430.25 802.895 1409.11 876.829 1354.08 860.366 C 1350.36 873.976 1338.98 899.796 1333.07 913.738 C 1324.68 933.523 1314.76 960.171 1305.13 978.756 C 1316.9 985.836 1333.71 994.172 1346.15 1000.82 C 1346.44 999.371 1346.77 997.926 1347.15 996.492 C 1352.65 976.077 1378.09 961.864 1398.22 968.361 C 1419.63 975.274 1431.25 1001.42 1423.63 1022.29 C 1416.17 1042.72 1392.95 1054.72 1372.42 1046.7 C 1354.89 1066.27 1332.75 1086.25 1313.53 1104.58 C 1327.64 1116.26 1349.49 1138.34 1362.88 1151.34 C 1367.9 1149.05 1373.23 1146.64 1378.69 1145.73 C 1389.99 1143.8 1401.59 1146.51 1410.86 1153.25 C 1419.64 1159.64 1425.48 1169.29 1427.09 1180.03 C 1430.68 1204.78 1413.6 1224.97 1388.92 1227.79 C 1375.02 1229.38 1365.88 1221.85 1355.85 1213.61 C 1330.61 1240.34 1297.47 1268.89 1270.9 1295.59 C 1287.02 1319.65 1279.83 1349.66 1252.32 1360.7 C 1242.19 1364.81 1230.84 1364.67 1220.82 1360.3 C 1208.78 1355.03 1203.48 1347.19 1199.11 1335.58 C 1166.18 1350.09 1125.12 1370.16 1093.63 1387.63 C 1092.33 1397.93 1089.75 1403.31 1084.31 1411.63 C 1080.45 1416.17 1074.34 1420.96 1069.03 1423.51 C 1059.82 1428.04 1049.13 1428.47 1039.59 1424.7 C 1025 1419.05 1018.37 1409.14 1012.64 1395.61 C 979.278 1387.78 946.09 1380.26 912.489 1373.46 C 901.127 1371.16 888.852 1368.75 877.826 1365.34 C 873.763 1373.15 869.06 1379.45 861.734 1384.56 C 852.396 1391.09 840.755 1393.43 829.62 1391 C 818.064 1388.66 807.994 1381.63 801.793 1371.6 C 793.609 1358.19 795.297 1347.35 798.495 1333.23 C 792.943 1329.44 787.52 1325.4 782.295 1321.17 C 756.526 1300.31 729.847 1279.83 704.683 1258.27 C 695.727 1264.74 684.357 1269.8 673.205 1267.48 C 618.888 1256.2 630.075 1177.3 689.257 1187.03 C 701.892 1153.04 722.859 1111.27 738.721 1078.86 C 720.232 1070.4 714.098 1064.2 697.438 1054.31 L 697.031 1055.14 L 696.336 1056.52 C 690.378 1068.55 676.332 1083.5 662.385 1082.94 C 605.812 1080.65 601.507 1001.84 667.653 1001.85 C 687.115 984.525 706.048 965.894 724.842 947.802 C 708.244 930.008 686.437 909.315 668.653 892.723 C 636.748 894.525 611.911 871.515 623.03 839.462 C 626.426 829.386 633.769 821.122 643.376 816.563 C 657.659 809.863 669.673 812.795 683.317 818.041 C 696.066 806.087 713.875 793.887 728.387 783.458 C 745.789 770.708 763.423 758.28 781.282 746.179 C 780.259 741.248 779.309 736.811 779.629 731.737 C 780.364 719.071 786.33 707.281 796.1 699.187 C 818.486 680.425 840.542 690.026 857.281 709.849 C 883.585 700.472 909.623 688.353 935.486 677.755 C 943.165 674.608 951.794 671.14 958.799 666.742 C 962.822 645.749 972.596 632.675 993.759 627.158 z"/>
<path transform="translate(0,0)" fill="rgb(66,165,245)" d="M 983.259 890.036 C 995.207 903.973 1010.33 909.221 1026.19 917.777 C 1044.41 927.775 1062.51 937.987 1080.49 948.412 C 1104.52 962.657 1138.48 984.533 1161.02 1000.86 C 1153.84 1013.7 1147.17 1027.58 1139.96 1040.67 L 1057.36 1188.23 C 1048.13 1175.54 1043.11 1170.98 1028.08 1166.44 C 1032.75 1147.22 1036.57 1127.84 1040.63 1108.48 C 1051.72 1106.72 1061.28 1103.96 1069.89 1096.14 C 1077.93 1088.86 1082.67 1078.63 1083 1067.79 C 1083.28 1057.02 1079.18 1046.6 1071.63 1038.9 C 1061.93 1029.08 1051.58 1027 1038.58 1026.96 L 1032.56 1014.48 C 1042.87 1004.79 1045.19 999.774 1048.2 986.387 C 1049.09 963.26 1032.24 944.636 1009.3 942.79 C 998.808 941.889 988.403 945.293 980.474 952.219 C 972.034 959.856 967.049 970.589 966.66 981.965 C 965.702 1010.42 987.989 1022.96 1013.57 1023.08 L 1020.12 1033.58 C 996.647 1056.25 995.272 1083.72 1023.8 1102.61 C 1019.97 1121.25 1015.79 1139.82 1011.27 1158.31 C 996.474 1145.37 980.688 1128.19 965.711 1115.89 C 939.113 1094.05 911.25 1072.01 884.063 1050.96 C 901.736 1018.56 922.388 984.997 941.244 953.244 C 949.944 938.592 972.289 901.213 983.259 890.036 z"/>
<path transform="translate(0,0)" fill="rgb(66,165,245)" d="M 792.934 760.859 C 809.554 774.582 825.7 776.901 844.553 766.063 C 860.009 777.57 883.524 800.85 898.138 814.537 C 895.758 820.626 894.034 822.869 897.199 828.988 C 903.777 833.942 907.121 830.862 913.073 826.726 C 928.281 837.562 953.023 863.525 970.706 877.911 C 952.389 894.527 883.633 1014.8 870.212 1040.26 C 861.193 1032.81 840.954 1018.48 833.776 1010.92 C 845.998 990.741 840.018 975.542 824.464 959.517 C 836.189 940.957 842.713 928.465 852.078 908.749 C 925.477 880.753 850.725 783.725 804.374 848.385 C 770.298 847.601 735.914 843.705 701.631 843.928 L 696.397 829.622 C 720.952 810.67 767.068 776.793 792.934 760.859 z"/>
<path transform="translate(0,0)" fill="rgb(66,165,245)" d="M 1175.92 1011.42 C 1180.02 1013.17 1200.17 1029.1 1205.2 1032.76 C 1204.43 1033.76 1203.68 1034.76 1202.93 1035.78 C 1186.58 1058.01 1190.84 1079.2 1213.12 1094.83 L 1195.12 1148.99 C 1171.56 1158.65 1171.75 1171.45 1159.9 1190.7 C 1155.88 1197.21 1137.65 1228.84 1134.4 1231.48 L 1129.88 1229.2 C 1112.78 1218.6 1093.09 1205.16 1075.55 1193.92 C 1081.66 1180.65 1093.04 1162.53 1100.1 1148.94 C 1124.16 1102.62 1151.52 1057.53 1175.92 1011.42 z"/>
<path transform="translate(0,0)" fill="rgb(66,165,245)" d="M 1164.98 827.991 C 1172.51 834.705 1199.69 879.08 1205.52 888.903 C 1173.41 901.623 1162.79 927.917 1184.95 956.146 C 1179.79 966.063 1174.45 975.888 1168.93 985.617 C 1152.95 975.338 1138.11 964.408 1121.45 953.886 C 1095.08 936.611 1064 917.453 1035.89 902.805 C 1049.27 894.074 1052.21 887.771 1056.8 873.379 C 1065.59 868.749 1079.27 863.281 1088.63 859.254 C 1113.91 848.416 1139.36 837.994 1164.98 827.991 z"/>
<path transform="translate(0,0)" fill="rgb(66,165,245)" d="M 870.979 1228.87 C 885.16 1249.92 908.407 1271.52 925.858 1289.98 C 909.067 1301.74 891.405 1316 874.986 1328.58 C 853.187 1305.95 836.716 1303.02 809.455 1319.04 L 807.359 1318.25 C 776.517 1295.04 746.495 1270.34 716.236 1246.32 C 717.915 1239.82 718.476 1237.37 719.164 1230.59 C 764.295 1230.62 809.426 1230.27 854.551 1229.53 L 870.979 1228.87 z"/>
<path transform="translate(0,0)" fill="rgb(66,165,245)" d="M 1175.1 726.961 C 1192.39 745.5 1210.65 750.409 1233.61 738.12 C 1242.1 745.256 1253.45 752.052 1262.8 758.395 C 1285.94 774.099 1309.71 788.168 1331.86 805.299 L 1330.82 809.988 C 1329.07 817.724 1328.96 818.697 1328.93 826.733 C 1318.5 824.771 1307.63 823.612 1297.07 822.312 C 1280.73 820.33 1180.33 810.088 1171.47 805.411 C 1156.33 797.417 1138.61 779.5 1125.58 767.782 C 1141.68 753.686 1158.19 740.073 1175.1 726.961 z"/>
<path transform="translate(0,0)" fill="rgb(66,165,245)" d="M 875.103 1066.42 C 885.896 1073.94 896.833 1084.09 907.508 1092.32 C 938.832 1116.49 971.818 1142.89 998.548 1172.23 C 987.433 1181.14 984.413 1185.78 979.155 1198.92 C 967.505 1199.66 955.867 1200.56 944.242 1201.62 C 922.381 1203.98 900.585 1206.9 878.874 1210.38 C 870.957 1199.49 860.999 1183.1 856.704 1170.57 C 895.851 1152.85 900.653 1113.01 861.548 1093.07 C 866.382 1084.35 870.903 1075.46 875.103 1066.42 z"/>
<path transform="translate(0,0)" fill="rgb(21,101,192)" d="M 1294.82 1205.55 C 1309.39 1204.51 1324.31 1206.18 1340.23 1205.02 C 1335.77 1208.86 1331.31 1213.42 1327.01 1217.5 C 1303.92 1239.42 1280.49 1260.67 1258.6 1283.81 C 1241.93 1279.49 1232.24 1277.89 1217.11 1286.74 L 1193.88 1271.78 C 1179.64 1262.3 1162.95 1251.71 1149.7 1241.18 C 1154.66 1231.54 1164.41 1216.88 1171.23 1208.56 C 1174.6 1213.15 1178.67 1217.2 1183.28 1220.55 C 1206.75 1237.58 1228.2 1227.9 1243.25 1206.04 C 1260.44 1206.1 1277.63 1205.94 1294.82 1205.55 z"/>
<path transform="translate(0,0)" fill="rgb(66,165,245)" d="M 810.204 895.763 C 810.268 895.795 810.333 895.828 810.397 895.86 C 817.99 902.04 823.476 904.699 832.605 907.841 C 826.135 922.369 817.05 937.014 809.335 951.088 C 807.437 950.747 805.532 950.447 803.621 950.189 C 793.582 948.868 783.595 952.096 775.736 958.375 C 767.351 965.077 761.974 974.837 760.789 985.506 C 759.557 997.067 762.773 1005.92 769.707 1014.9 C 762.931 1031.78 753.631 1049.08 745.204 1065.31 C 739.824 1061.97 733.866 1057.71 728.564 1054.1 C 718.102 1046.5 712.46 1042.59 700.644 1037.58 C 697.642 1025.11 694.636 1020.6 686.246 1011.41 C 699.838 996.338 715.55 983.009 729.804 968.845 C 756.141 942.675 782.01 919.817 810.204 895.763 z"/>
<path transform="translate(0,0)" fill="rgb(66,165,245)" d="M 983.439 705.452 C 992.193 708.63 995.026 708.904 1003.99 709.383 C 1003.85 743.283 1008.21 791.602 1010.09 826.64 C 989.575 832.935 983.634 839.297 975.836 859.081 C 970.96 855.271 966.43 850.79 961.909 846.538 C 949.121 834.878 935.983 823.608 922.514 812.742 C 942.108 776.078 963.949 743.039 983.439 705.452 z"/>
<path transform="translate(0,0)" fill="rgb(21,101,192)" d="M 1064.89 1208.41 C 1077.78 1215.19 1111.48 1238.66 1123.92 1247.38 C 1107.99 1274.94 1092.23 1302.6 1076.63 1330.35 L 1067.32 1346.9 C 1060.87 1345.14 1058.51 1345.18 1051.87 1344.89 C 1048.91 1319.43 1037.4 1272.57 1031.2 1246.67 C 1054.01 1238.01 1056.87 1229.76 1064.89 1208.41 z"/>
<path transform="translate(0,0)" fill="rgb(21,101,192)" d="M 1139.38 1257.5 C 1160.53 1271.35 1181.86 1284.92 1202.49 1299.52 C 1199.61 1305.62 1197.21 1311.15 1196.53 1317.89 C 1173.1 1327.57 1149.92 1339.2 1127.26 1350.59 C 1114.95 1356.69 1102.6 1362.71 1090.22 1368.65 C 1087.51 1363.48 1085.65 1361.03 1082.26 1356.41 C 1102.19 1322.05 1117.82 1291.29 1139.38 1257.5 z"/>
<path transform="translate(0,0)" fill="rgb(66,165,245)" d="M 962.676 685.033 C 963.026 685.393 967.683 692.893 970.245 695.875 C 950.99 727.393 928.649 769.217 908.1 799.198 C 899.821 792.404 891.9 784.922 884.004 777.665 C 874.487 769.517 865.481 761.866 856.439 753.181 C 860.878 743.427 862.006 740.02 862.696 729.138 C 889.456 714.885 934.299 697.066 962.676 685.033 z"/>
<path transform="translate(0,0)" fill="rgb(66,165,245)" d="M 1042.36 674.539 C 1064.62 678.564 1087.11 684.34 1109.08 689.872 C 1129.09 694.909 1151.99 699.577 1171.2 706.61 C 1165.2 713.13 1147.54 725.862 1139.42 732.342 C 1130.16 740.12 1121.49 748.505 1112.15 756.302 C 1085.81 735.471 1059.81 713.765 1033.47 692.765 C 1038.34 685.333 1039.79 682.771 1042.36 674.539 z"/>
<path transform="translate(0,0)" fill="rgb(66,165,245)" d="M 820.303 1024.07 C 824.636 1025.49 855.642 1050.84 861.154 1055.16 C 855.386 1066.75 849.696 1078.38 844.086 1090.04 C 828.887 1093.04 823.603 1095.14 814.907 1107.3 L 807.299 1103.29 C 791.525 1094.36 776.199 1084.65 761.377 1074.21 C 770.029 1059.84 778.131 1041.85 787.015 1026.34 C 800.648 1030.25 807.841 1029.93 820.303 1024.07 z"/>
<path transform="translate(0,0)" fill="rgb(66,165,245)" d="M 1019.77 705.848 C 1028.87 709.069 1090.69 759.702 1098.8 768.856 C 1089.33 778.947 1077.24 790.164 1067.2 799.944 C 1056.91 810.356 1046.84 820.989 1037.01 831.836 C 1033.77 830.214 1030.07 828.659 1026.73 827.164 C 1026.26 788.541 1022.72 744.574 1019.77 705.848 z"/>
<path transform="translate(0,0)" fill="rgb(66,165,245)" d="M 1299.85 1116.65 C 1305.34 1118.88 1344.96 1158.25 1351.52 1164.56 C 1346.7 1174.23 1346.05 1177.08 1345.16 1187.87 L 1295.5 1188.27 C 1279.07 1188.44 1262.65 1188.29 1246.23 1187.82 C 1245.67 1180.18 1245.57 1175.78 1241.66 1169.19 L 1299.85 1116.65 z"/>
<path transform="translate(0,0)" fill="rgb(66,165,245)" d="M 700.724 861.889 C 733.572 863.03 766.335 865.17 799.119 866.037 C 798.939 871.509 799.089 877.244 799.138 882.738 C 786.717 892.436 773.963 903.908 761.978 914.311 C 753.351 921.823 746.179 928.68 738.014 936.653 C 722.383 921.036 702.415 898.568 686.223 885.051 C 695.045 877.075 697.582 872.864 700.724 861.889 z"/>
<path transform="translate(0,0)" fill="rgb(66,165,245)" d="M 753.141 1089.36 C 771.663 1102.16 787.375 1111.41 806.949 1122.64 C 806.587 1128.67 806.955 1134.87 807.16 1140.92 C 787.197 1151.13 760.36 1168.29 740.498 1180.24 C 734.601 1183.42 712.122 1198.49 708.519 1198.74 L 706.864 1196.68 C 705.471 1187.6 747.2 1101.95 753.141 1089.36 z"/>
<path transform="translate(0,0)" fill="rgb(66,165,245)" d="M 1297.6 994.506 C 1310.23 1001.61 1331.57 1014.39 1344.77 1019.07 C 1349 1028.54 1350.84 1031.37 1357.76 1038.61 C 1344.53 1052 1330.93 1065.03 1316.97 1077.67 C 1311.46 1082.88 1305.86 1088 1300.17 1093.03 C 1291.43 1083.76 1282.02 1076.28 1272.11 1068.41 C 1273.11 1059.82 1273.6 1056.26 1271 1047.79 C 1279.18 1037.27 1291.81 1007.35 1297.6 994.506 z"/>
<path transform="translate(0,0)" fill="rgb(66,165,245)" d="M 1183.73 825.672 C 1225.44 830.29 1277.96 835.966 1318.83 843.242 C 1307.64 850.793 1296.56 858.494 1285.58 866.345 C 1270.64 876.83 1254.82 887.186 1239.64 897.405 C 1233.59 893.612 1231.17 891.95 1224.48 889.376 C 1215.83 869.064 1197.51 843.213 1183.73 825.672 z"/>
<path transform="translate(0,0)" fill="rgb(21,101,192)" d="M 937.853 1301.79 C 943.841 1305.22 963.438 1321.67 969.807 1326.83 C 985.499 1339.56 1001.38 1352.05 1017.45 1364.3 C 1015.82 1368.26 1014.31 1372.53 1012.8 1376.56 C 998.921 1373.24 983.458 1370.26 969.36 1367.19 C 938.726 1360.8 909.927 1353.45 878.789 1347.97 C 898.635 1332.78 918.324 1317.39 937.853 1301.79 z"/>
<path transform="translate(0,0)" fill="rgb(66,165,245)" d="M 1335.8 852.785 L 1337.77 853.614 C 1337.78 858.856 1295.33 959.074 1290.91 969.552 C 1281.07 964.342 1273.25 959.833 1263.77 954.042 L 1247.7 944.638 C 1255.28 932.882 1253.64 923.942 1250.89 911.077 C 1278.86 893.708 1308.44 871.668 1335.8 852.785 z"/>
<path transform="translate(0,0)" fill="rgb(21,101,192)" d="M 1236.38 958.961 C 1250.6 966.248 1268.89 977.078 1282.23 985.939 C 1276.26 1000.74 1267.48 1017.79 1260.39 1032.36 C 1252.63 1025.6 1248.63 1023.95 1239.18 1021.11 C 1232.34 1020.32 1226.77 1020.9 1219.92 1021.34 C 1209.07 1012.72 1195.71 1004.15 1184.12 996.172 C 1189.33 985.803 1194.34 975.336 1199.15 964.776 C 1214.8 968.654 1222.73 967.582 1236.38 958.961 z"/>
<path transform="translate(0,0)" fill="rgb(66,165,245)" d="M 814.352 1156.81 L 815.725 1157.1 C 822.255 1163.55 827.992 1167.09 836.226 1170.76 C 842.425 1185.87 850.622 1198.64 859.712 1212.03 C 832.138 1213.64 792.928 1212.18 763.75 1212.46 C 749.172 1212.74 732.696 1212.7 718.366 1214.08 C 750.483 1194.32 782.241 1177.01 814.352 1156.81 z"/>
<path transform="translate(0,0)" fill="rgb(21,101,192)" d="M 1009.23 1247.78 L 1011.99 1247.8 C 1012.49 1248.26 1012.98 1248.71 1013.48 1249.17 C 1019.99 1277.85 1028.54 1318.38 1034.86 1345.76 C 1034.02 1348.43 1031.61 1349.73 1029.27 1351.54 C 1020.42 1344.91 1011.69 1338.14 1003.07 1331.23 C 986.132 1317.82 969.472 1304.06 953.103 1289.97 C 970.682 1277.76 991.583 1260.9 1009.23 1247.78 z"/>
<path transform="translate(0,0)" fill="rgb(66,165,245)" d="M 969.923 1218.42 C 972.202 1218.13 977.112 1218.03 979.566 1217.91 C 983.995 1226.8 986.735 1230.6 993.424 1237.8 C 979.433 1249.56 955.202 1266.1 939.52 1277.96 L 928.9 1267.36 C 915.118 1253.98 903.906 1241.75 892.403 1226.27 C 918.544 1223.92 943.005 1220.49 969.923 1218.42 z"/>
<path transform="translate(0,0)" fill="rgb(66,165,245)" d="M 1113.22 779.593 C 1117.54 781.484 1147.24 807.36 1155.17 812.972 C 1131.35 824.132 1105.54 834.222 1081.25 844.471 C 1071.89 848.41 1065.01 851.158 1055.24 854.313 L 1049.81 844.311 C 1065.18 825.249 1094.94 797.098 1113.22 779.593 z"/>
<path transform="translate(0,0)" fill="rgb(21,101,192)" d="M 1263.04 1084.59 C 1267.84 1085.63 1283.85 1100.15 1288.7 1104.32 C 1273.15 1119.7 1252.54 1135.99 1235.62 1151.87 C 1233.57 1153.75 1233.48 1153.65 1230.91 1154.82 C 1225.46 1154.53 1219.87 1151.29 1214.51 1148.96 C 1217.89 1132.77 1224.95 1116.11 1230.57 1100.28 C 1245.01 1101.6 1253.43 1094.14 1263.04 1084.59 z"/>
<path transform="translate(0,0)" fill="rgb(66,165,245)" d="M 835.409 846.671 C 841.662 845.034 848.319 846.242 853.599 849.972 C 858.878 853.702 862.241 859.573 862.786 866.014 C 863.688 876.648 856.795 886.384 846.466 889.067 C 834.764 892.107 822.811 885.092 819.759 873.392 C 816.708 861.693 823.712 849.733 835.409 846.671 z"/>
<path transform="translate(0,0)" fill="rgb(21,101,192)" d="M 1013.36 1186.24 C 1024.77 1182.06 1037.4 1187.96 1041.5 1199.4 C 1045.61 1210.83 1039.63 1223.43 1028.17 1227.46 C 1016.81 1231.46 1004.35 1225.54 1000.28 1214.21 C 996.205 1202.87 1002.05 1190.38 1013.36 1186.24 z"/>
<path transform="translate(0,0)" fill="rgb(21,101,192)" d="M 1234.49 1300.4 C 1240.82 1299.36 1247.28 1301.17 1252.16 1305.33 C 1257.03 1309.49 1259.83 1315.59 1259.8 1322 C 1259.75 1333.03 1251.47 1342.28 1240.51 1343.55 C 1228.76 1344.91 1218.06 1336.64 1216.43 1324.92 C 1214.79 1313.19 1222.81 1302.31 1234.49 1300.4 z"/>
<path transform="translate(0,0)" fill="rgb(66,165,245)" d="M 997.532 646.161 C 1009.45 644.094 1020.76 652.147 1022.71 664.083 C 1024.66 676.019 1016.49 687.252 1004.54 689.083 C 992.75 690.888 981.707 682.862 979.785 671.091 C 977.863 659.32 985.781 648.198 997.532 646.161 z"/>
<path transform="translate(0,0)" fill="rgb(21,101,192)" d="M 1381.51 1165.13 C 1392.96 1162.18 1404.64 1169.04 1407.64 1180.47 C 1410.64 1191.9 1403.85 1203.61 1392.43 1206.67 C 1380.93 1209.76 1369.12 1202.9 1366.1 1191.39 C 1363.07 1179.87 1369.99 1168.1 1381.51 1165.13 z"/>
<path transform="translate(0,0)" fill="rgb(66,165,245)" d="M 818.656 709.634 C 826.3 708.437 833.994 711.459 838.781 717.538 C 843.568 723.617 844.701 731.805 841.746 738.956 C 838.79 746.106 832.206 751.105 824.524 752.029 C 812.935 753.424 802.365 745.277 800.765 733.714 C 799.164 722.152 807.123 711.439 818.656 709.634 z"/>
<path transform="translate(0,0)" fill="rgb(66,165,245)" d="M 1379.27 987.665 C 1385.72 985.682 1392.74 986.879 1398.16 990.89 C 1403.59 994.901 1406.8 1001.25 1406.8 1008 C 1406.8 1017.44 1400.58 1025.76 1391.52 1028.42 C 1380.29 1031.71 1368.51 1025.33 1365.15 1014.12 C 1361.78 1002.92 1368.09 991.101 1379.27 987.665 z"/>
<path transform="translate(0,0)" fill="rgb(21,101,192)" d="M 1050.11 1364.75 C 1061.73 1363.25 1072.37 1371.47 1073.85 1383.1 C 1075.33 1394.73 1067.11 1405.35 1055.48 1406.83 C 1043.86 1408.3 1033.25 1400.09 1031.76 1388.47 C 1030.28 1376.86 1038.49 1366.24 1050.11 1364.75 z"/>
<path transform="translate(0,0)" fill="rgb(66,165,245)" d="M 1205.05 683.64 C 1216.36 680.674 1227.93 687.474 1230.83 698.8 C 1233.74 710.125 1226.88 721.654 1215.54 724.502 C 1204.28 727.329 1192.86 720.531 1189.97 709.288 C 1187.09 698.045 1193.82 686.584 1205.05 683.64 z"/>
<path transform="translate(0,0)" fill="rgb(66,165,245)" d="M 842.236 1109.63 C 853.351 1106.52 864.885 1112.98 868.034 1124.09 C 871.182 1135.19 864.758 1146.75 853.667 1149.94 C 842.517 1153.14 830.885 1146.68 827.72 1135.52 C 824.556 1124.36 831.063 1112.75 842.236 1109.63 z"/>
<path transform="translate(0,0)" fill="rgb(21,101,192)" d="M 834.501 1329.08 C 838.485 1328.99 841.186 1328.96 844.92 1330.56 C 850.52 1332.9 854.834 1337.55 856.756 1343.31 C 858.734 1349.05 858.303 1355.36 855.559 1360.78 C 852.171 1367.36 847.332 1370.02 840.572 1371.96 C 814.919 1372.19 806.114 1340.16 834.501 1329.08 z"/>
<path transform="translate(0,0)" fill="rgb(66,165,245)" d="M 652.884 1022.41 C 663.867 1018.9 675.615 1024.96 679.118 1035.95 C 682.621 1046.93 676.551 1058.68 665.564 1062.17 C 654.588 1065.66 642.857 1059.6 639.357 1048.63 C 635.858 1037.65 641.912 1025.92 652.884 1022.41 z"/>
<path transform="translate(0,0)" fill="rgb(66,165,245)" d="M 1010.88 846.034 C 1020.67 845.946 1030.74 849.834 1035.25 859.075 C 1037.54 863.674 1037.75 869.036 1035.81 873.797 C 1032.86 881.171 1027.33 884.365 1020.5 887.444 C 993.566 891.211 984.574 858.072 1010.88 846.034 z"/>
<path transform="translate(0,0)" fill="rgb(66,165,245)" d="M 658.64 832.043 C 667.978 832.411 676.882 835.867 680.814 844.989 C 682.85 849.686 682.832 855.02 680.766 859.704 C 677.72 866.748 671.893 870.342 665.182 873.249 C 659.851 873.452 656.296 873.594 651.39 871.199 C 646.393 868.798 642.625 864.42 640.995 859.121 C 639.4 853.78 640.04 848.02 642.768 843.16 C 646.594 836.282 651.559 834.253 658.64 832.043 z"/>
<path transform="translate(0,0)" fill="rgb(21,101,192)" d="M 1203.68 1168.1 C 1231.64 1168.2 1236.4 1200.01 1209.58 1209.08 C 1199.19 1208.83 1188.47 1204.32 1185.45 1193.48 C 1184.13 1188.64 1184.81 1183.48 1187.35 1179.15 C 1191.11 1172.68 1196.74 1169.83 1203.68 1168.1 z"/>
<path transform="translate(0,0)" fill="rgb(66,165,245)" d="M 677.915 1205.03 C 685.737 1204.93 693.347 1209.08 696.745 1216.27 C 699.422 1221.89 699.615 1228.38 697.279 1234.15 C 694.193 1241.81 689.525 1244.49 682.302 1247.33 C 652.475 1247.54 649.482 1213.43 677.915 1205.03 z"/>
<path transform="translate(0,0)" fill="rgb(21,101,192)" d="M 1040.92 1046.2 C 1052.02 1045.04 1061.99 1053.05 1063.24 1064.14 C 1064.49 1075.24 1056.55 1085.27 1045.47 1086.6 C 1034.26 1087.95 1024.1 1079.91 1022.84 1068.69 C 1021.57 1057.48 1029.69 1047.38 1040.92 1046.2 z"/>
<path transform="translate(0,0)" fill="rgb(66,165,245)" d="M 794.519 969.441 C 801.591 967.548 809.135 969.609 814.262 974.835 C 819.389 980.061 821.305 987.644 819.275 994.678 C 817.246 1001.71 811.586 1007.11 804.464 1008.8 C 793.665 1011.37 782.807 1004.79 780.088 994.024 C 777.369 983.262 783.797 972.312 794.519 969.441 z"/>
<path transform="translate(0,0)" fill="rgb(66,165,245)" d="M 1000.96 963.582 C 1007.89 961.242 1015.53 962.809 1020.98 967.683 C 1026.43 972.558 1028.83 979.986 1027.27 987.126 C 1025.7 994.266 1020.42 1000.01 1013.44 1002.17 C 1002.84 1005.44 991.573 999.588 988.16 989.031 C 984.747 978.474 990.452 967.134 1000.96 963.582 z"/>
<path transform="translate(0,0)" fill="rgb(21,101,192)" d="M 1365.8 803.348 C 1371.58 802.589 1377.41 804.371 1381.78 808.234 C 1386.15 812.097 1388.64 817.664 1388.6 823.498 C 1388.53 833.779 1380.74 842.363 1370.51 843.429 C 1359.53 844.574 1349.67 836.681 1348.38 825.716 C 1347.09 814.751 1354.85 804.784 1365.8 803.348 z"/>
<path transform="translate(0,0)" fill="rgb(66,165,245)" d="M 1229.83 1040.33 C 1240.73 1039.03 1250.63 1046.82 1251.91 1057.73 C 1253.2 1068.63 1245.38 1078.51 1234.48 1079.78 C 1223.59 1081.04 1213.75 1073.25 1212.47 1062.37 C 1211.18 1051.5 1218.95 1041.63 1229.83 1040.33 z"/>
<path transform="translate(0,0)" fill="rgb(21,101,192)" d="M 1210.74 907.367 C 1221.48 906.222 1231.15 913.914 1232.45 924.637 C 1233.74 935.36 1226.19 945.138 1215.49 946.59 C 1208.43 947.548 1201.4 944.629 1197.09 938.952 C 1192.79 933.275 1191.87 925.718 1194.7 919.177 C 1197.52 912.636 1203.65 908.123 1210.74 907.367 z"/>
<path transform="translate(0,0)" fill="rgb(21,101,192)" d="M 1623.34 903.446 C 1628.08 906.725 1629.46 917.246 1630.92 923.334 C 1627.25 920.672 1624.88 908.801 1623.34 903.446 z"/>
<path transform="translate(0,0)" fill="rgb(21,101,192)" d="M 1414.09 1543.49 L 1414.79 1544.93 C 1414.8 1547.73 1412.88 1552.19 1411.85 1555.04 L 1410.67 1554.32 C 1410.34 1550.82 1412.61 1546.86 1414.09 1543.49 z"/>
<path transform="translate(0,0)" fill="rgb(21,101,192)" d="M 1470.43 1061.39 L 1471.96 1062.84 C 1472.5 1066.01 1470.78 1069.45 1469.61 1072.61 L 1468.09 1070.87 C 1468.82 1067.7 1469.6 1064.54 1470.43 1061.39 z"/>
<path transform="translate(0,0)" fill="rgb(21,101,192)" d="M 659.775 773.397 C 664.094 775.027 665.707 777.828 667.871 781.565 C 662.688 780.49 662.425 777.855 659.775 773.397 z"/>
<path transform="translate(0,0)" fill="rgb(21,101,192)" d="M 886.819 1505.48 L 888.4 1504.79 L 892.971 1510.57 C 888.974 1509.59 888.379 1508.97 886.819 1505.48 z"/>
<path transform="translate(0,0)" fill="rgb(21,101,192)" d="M 1356.44 257.277 C 1359.25 257.938 1358.41 257.604 1361.22 257.518 C 1410.43 256.021 1469.55 277.19 1506.92 309.037 C 1531.54 330.026 1520.73 355.881 1521.56 380.96 C 1523.36 435.662 1582.54 431.273 1621.4 434.84 C 1634.82 436.071 1651.63 439.045 1664.78 443.059 C 1695.38 452.395 1734.52 480.156 1758.47 502.722 C 1790.88 535.68 1835.74 575.752 1841.3 623.885 C 1842.32 632.684 1829.8 656.582 1820.81 656.495 C 1818.16 651.417 1824.38 643.593 1825.89 633.236 C 1826.36 628.221 1824.44 618.193 1822.79 613.341 C 1803.81 557.676 1731.29 491.866 1680.29 465.197 C 1667.4 458.494 1653.73 453.423 1639.58 450.101 C 1604.09 441.711 1566.11 448.454 1534.02 432.335 C 1489.43 409.935 1511.86 369.715 1504.84 335.827 C 1499.66 310.763 1436 284.237 1412.32 277.308 C 1397.23 272.9 1381.73 270.015 1366.07 268.696 C 1351.67 267.553 1321.91 275.318 1312.67 270.563 L 1312.38 268.887 C 1319.09 260.847 1343.37 260.242 1355.41 257.518 L 1356.44 257.277 z"/>
<path transform="translate(0,0)" fill="rgb(21,101,192)" d="M 1575.39 160.419 C 1615.98 163.021 1643.93 194.043 1665.74 225.509 C 1682.25 249.319 1687.6 290.168 1704.36 311.477 C 1724.75 337.394 1773.65 357.525 1802.84 374.189 C 1861.56 407.705 1919.1 446.706 1957.13 503.909 C 1968.99 521.962 1983.7 552.505 1977.19 573.345 C 1973.82 584.117 1966.76 598.584 1956.67 604.459 C 1952.69 604.837 1954.49 605.246 1951.06 603.163 C 1948.99 596.791 1960.08 589.179 1961.94 579.448 C 1964.14 567.958 1963.29 563.153 1961.16 551.946 C 1938.14 471.271 1841.64 411.61 1772.05 374.046 C 1748.68 361.431 1716.4 345.076 1697.21 327.441 C 1678.88 310.008 1673.15 286.611 1664.28 263.96 C 1648.75 224.254 1613.67 175.489 1567.29 171.824 C 1548.9 170.371 1536.46 186.942 1525.78 199.04 C 1524.02 201.037 1522.12 200.73 1519.91 200.426 L 1518.9 198.534 C 1519.75 193.027 1525.19 183.923 1528.76 179.714 C 1542.2 163.848 1556.55 162.039 1575.39 160.419 z"/>
<path transform="translate(0,0)" fill="rgb(21,101,192)" d="M 690.923 1788.16 C 660.986 1789.95 630.998 1785.64 602.774 1775.5 C 564.828 1761.88 522.731 1734.95 524.532 1689.98 C 525.118 1675.35 527.307 1658.48 520.608 1645.13 C 516.368 1636.88 509.622 1630.18 501.337 1625.99 C 486.17 1618.48 461.781 1616.64 444.71 1613.73 C 424.945 1610.37 399.111 1606.54 380.053 1599.75 C 314.133 1576.29 248.256 1518.08 215.673 1455.87 C 209.171 1442.7 204.239 1427.58 210.02 1413.18 C 211.627 1409.17 218.206 1394.7 223.988 1397.86 C 225.035 1405.23 220.74 1416.58 221.019 1421.55 C 222.1 1440.81 240.136 1469.27 251.422 1483.36 C 297.959 1541.45 354.267 1586.76 429.41 1599.96 C 456.266 1604.68 506.27 1606.86 526.082 1624.58 C 558.618 1653.67 523.725 1695.47 558.472 1730.7 C 592.839 1765.54 644.202 1776.09 690.544 1778.23 C 701.184 1777.92 724.783 1773.68 732.369 1776.09 L 732.959 1777 C 728.83 1784.05 699.426 1788.11 690.923 1788.16 z"/>
<path transform="translate(0,0)" fill="rgb(21,101,192)" d="M 88.5683 1442.62 C 92.5246 1443.36 91.2602 1442.34 93.344 1444.76 C 93.4874 1448.32 86.0731 1463.78 83.9701 1470.6 C 76.8544 1493.68 90.1263 1518.91 103.302 1537.7 C 146.236 1598.92 208.44 1639.22 274.02 1672.68 C 298.836 1685.34 331.169 1702.15 351.574 1720.87 C 380.642 1747.42 384.324 1787.83 403.709 1820.03 C 422.001 1848.68 457.096 1885.1 494.745 1876.14 C 507.272 1873.16 518.373 1850.89 526.006 1853.4 L 526.933 1855.85 C 526.714 1860.16 524.616 1862.44 522.2 1866.13 C 508.998 1883.41 494.378 1889.23 472.769 1887.57 C 453.56 1886.09 441.126 1879.27 425.563 1868.93 C 376.628 1836.44 376.415 1778.56 344.144 1735.48 C 324.818 1710.26 267.167 1684.56 238.252 1668.74 C 189.326 1641.81 141.145 1609.66 105.275 1566.2 C 76.3188 1531.12 42.4911 1479.32 88.5683 1442.62 z"/>
<path transform="translate(0,0)" fill="rgb(66,165,245)" d="M 837.647 153.43 C 862.021 151.842 885.984 155.491 909.61 155.503 C 981.338 155.538 1048.92 168.007 1118.2 185.438 C 1130.67 188.576 1196.59 200.732 1198.81 212.506 C 1194.56 216.336 1177.37 212.441 1171.91 211.324 C 1129.71 201.446 1086.43 192.58 1044.24 183.224 C 999.595 169.823 956.989 172.574 912.058 168.886 C 853.951 164.117 818.558 166.723 761.235 177.122 C 744.142 179.635 721.599 185.392 704.934 189.784 C 646.84 205.469 589.919 225.211 534.588 248.865 C 524.904 253.07 464.96 283.909 460.791 283.536 C 459.388 283.41 459.265 282.64 458.499 281.618 L 458.951 279.547 C 470.614 270.595 495.539 257.332 509.13 250.646 C 609.455 201.292 726.412 163.58 837.647 153.43 z"/>
<path transform="translate(0,0)" fill="rgb(21,101,192)" d="M 1585.72 1764.89 C 1590.01 1764.89 1588.4 1764.19 1591.48 1765.95 L 1591.54 1767.82 C 1587.2 1774.11 1571.44 1782.87 1564.04 1787.07 C 1510.72 1817.31 1452.14 1838.77 1393.67 1856.62 C 1333.56 1874.97 1273.07 1889.1 1210.33 1894.38 C 1189.38 1896.15 1165.67 1893.62 1144.29 1892.84 C 1116.47 1891.82 1086.75 1891.76 1059.26 1888.5 C 995.751 1880.97 934.111 1867.04 872.626 1850.2 C 867.842 1848.58 864.249 1848.12 862.122 1843.83 C 867.833 1839.63 906.233 1848.02 915.125 1849.73 C 966.044 1859.5 1015.93 1870.56 1067.64 1876.02 C 1092.11 1879.83 1118.44 1877.69 1142.7 1879.67 C 1264.8 1889.64 1388.3 1847.89 1501.43 1806.07 C 1528.49 1796.07 1559.25 1778.86 1585.72 1764.89 z"/>
<path transform="translate(0,0)" fill="rgb(21,101,192)" d="M 1856.84 1174.91 C 1859.5 1175.6 1858.25 1175.06 1860.37 1177.1 C 1859.61 1181.76 1851.6 1187.93 1847.68 1191.29 C 1797.59 1234.17 1780.6 1297.21 1758.49 1357.45 C 1729.56 1436.25 1698.29 1521.85 1646.17 1588.91 C 1631.69 1607.54 1613.66 1621.1 1590.24 1626.01 C 1586.1 1624.09 1587.12 1625.54 1585.9 1622.36 C 1586.89 1620.36 1616.82 1601.51 1624.06 1593 C 1639.85 1574.47 1652.49 1555.85 1664.24 1534.86 C 1696.75 1476.77 1720.5 1417.06 1742.37 1354.41 C 1752.82 1324.46 1762.21 1294.97 1775.6 1265.99 C 1790.65 1233.41 1821.55 1187.53 1856.84 1174.91 z"/>
<path transform="translate(0,0)" fill="url(#Gradient1)" d="M 143.081 943.804 L 146.052 944.058 L 147.344 945.646 C 147.163 952.681 138.138 965.246 135.043 972.471 C 124.254 997.652 119.569 1022.78 113.489 1049.36 C 107.933 1073.65 99.1958 1104.01 99.8896 1128.99 C 100.372 1146.35 108.191 1171.19 115.044 1187.96 C 138.746 1245.96 186.377 1315.71 243.886 1343.1 C 251.204 1346.59 262.891 1349.5 270.86 1350.64 C 276.289 1351.41 285.597 1350.16 290.658 1352.35 L 291.132 1354.4 C 288.927 1357.28 286.082 1357.8 282.575 1359.09 C 223.748 1367.81 172.557 1314.41 141.675 1270.63 C 111.257 1227.51 72.6268 1149.52 86.1645 1096.44 C 97.1743 1053.28 106.091 969.498 143.081 943.804 z"/>
<path transform="translate(0,0)" fill="rgb(66,165,245)" d="M 454.587 423.163 C 458.582 422.571 461.346 421.535 464.407 424.486 C 463.871 426.131 462.951 427.441 461.478 428.31 C 447.997 436.761 433.517 445.319 422.699 457.432 C 364.204 522.933 335.609 614.519 305.479 694.844 C 284.943 749.593 255.024 851.761 193.205 868.983 C 190.06 869.754 186.196 870.777 183.704 868.362 C 185.54 862.606 195.838 858.969 200.697 855.281 C 247.788 819.538 264.625 753.379 284.123 700.821 C 298.917 661.51 314.704 622.58 331.466 584.067 C 354.935 530.158 397.106 445.784 454.587 423.163 z"/>
<path transform="translate(0,0)" fill="rgb(21,101,192)" d="M 1772.27 687.211 C 1802.49 685.694 1825.49 697.071 1848.97 716.911 C 1901.72 761.497 1954.45 841.98 1962.73 911.476 C 1965.07 946.061 1955.03 982.219 1947.5 1015.46 C 1939.97 1048.71 1929.82 1083.69 1907.34 1109.71 C 1903.65 1110.99 1901.95 1112.1 1899.06 1109.06 C 1899.53 1105.81 1914.95 1071.45 1917.75 1062.64 C 1930 1022.73 1943.32 975.869 1946.69 934.373 C 1951.76 871.888 1905.35 800.091 1865.52 754.448 C 1843.08 728.741 1810.72 699.429 1775.94 696.124 C 1772.61 695.807 1769.78 696.716 1768.02 693.554 C 1768.7 690.46 1770.07 689.508 1772.27 687.211 z"/>
<path transform="translate(0,0)" fill="rgb(66,165,245)" d="M 306.814 397.172 L 309.101 398.071 L 309.639 399.92 C 306.215 406.084 292.937 410.951 286.966 415.413 C 215.113 469.122 175.345 568.005 147.078 649.52 C 139.209 672.827 132.024 696.359 125.533 720.087 C 118.597 744.745 108.722 797.247 92.9702 815.021 C 91.061 814.516 91.9839 814.918 90.4506 812.991 C 90.1578 802.79 93.9907 782.244 95.9293 771.735 C 114.271 672.3 196.492 424.494 306.814 397.172 z"/>
<path transform="translate(0,0)" fill="rgb(21,101,192)" d="M 1946.26 1233.53 C 1947.82 1234.87 1948.5 1234.95 1948.75 1237.49 C 1956.44 1316.1 1914.46 1410.79 1885.32 1482.11 C 1876.19 1504.44 1847.13 1555.41 1834.5 1572.39 C 1810.05 1605.24 1784.52 1639.79 1743.68 1646.7 C 1741.63 1646.86 1741.49 1646.67 1739.42 1646.34 L 1738.69 1644.82 C 1741.09 1639.35 1758.43 1632.65 1765.03 1627.28 C 1855.07 1554.03 1892.86 1428.4 1925.71 1321.37 C 1930.59 1305.48 1940.9 1241.33 1946.26 1233.53 z"/>
<path transform="translate(0,0)" fill="rgb(21,101,192)" d="M 1822.83 918.212 C 1839.21 916.659 1866.33 925.041 1873.37 941.164 C 1891.94 983.694 1848.73 1057.13 1811.11 1075.87 C 1808.27 1076.35 1808.42 1076.29 1805.56 1075.76 L 1804.97 1074.31 C 1809.19 1067.83 1820.35 1057.08 1826.84 1047.83 C 1843.93 1023.49 1863.59 988.536 1859.17 957.664 C 1854.87 927.616 1825.79 931.726 1813.29 923.085 L 1813.3 921.469 C 1816.45 918.886 1818.64 918.956 1822.83 918.212 z"/>
<path transform="translate(0,0)" fill="rgb(21,101,192)" d="M 222.845 978.924 C 226.853 978.584 226.961 978.501 229.332 980.362 C 229.105 981.301 207.788 1007.81 204.526 1013.62 C 189.859 1039.76 180.63 1066.56 186.767 1096.68 C 193.187 1128.19 218.743 1117.83 232.732 1126.28 L 232.518 1127.77 C 228.738 1130.77 226.286 1131.02 221.662 1132.24 C 213.4 1132.29 205.105 1132.24 197.12 1129.9 C 160.835 1119.27 163.904 1074.44 173.12 1046 C 181.994 1018.62 196.783 992.696 222.845 978.924 z"/>
<path transform="translate(0,0)" fill="rgb(21,101,192)" d="M 1490.37 1698.69 L 1493.47 1700.16 C 1493.89 1700.81 1495.2 1702.21 1494.5 1702.94 C 1453.58 1746.04 1397.01 1791.51 1333.85 1780.55 C 1329.73 1779.46 1329.2 1779.47 1325.8 1777.1 L 1325.52 1775.34 C 1332.11 1769.33 1370.78 1763.92 1381.39 1761.5 C 1388.61 1759.8 1395.69 1757.57 1402.58 1754.83 C 1436.08 1741.88 1462.36 1720.41 1490.37 1698.69 z"/>
<path transform="translate(0,0)" fill="rgb(66,165,245)" d="M 684.631 267.35 C 692.304 266.11 721.121 265.231 726.082 271.642 C 721.745 275.363 696.503 279.45 689.002 281.256 C 644.632 291.94 616.244 311.848 581.589 338.894 C 576.546 342.519 561.046 354.639 555.538 353.893 L 555.015 352.358 C 555.591 350.939 556.559 348.77 557.639 347.704 C 592.81 312.995 634.22 273.737 684.631 267.35 z"/>
</svg>